<svg width="84" height="84" viewBox="0 0 84 84" fill="none" xmlns="http://www.w3.org/2000/svg">
<circle cx="42" cy="42" r="42" fill="#C84F4F" fill-opacity="0.3"/>
<path d="M10.9875 42C10.9875 24.875 24.8751 10.9875 42.0001 10.9875C59.1251 10.9875 73.0126 24.875 73.0126 42C73.0126 59.125 59.1251 73.0125 42.0001 73.0125C24.8751 73.0125 10.9875 59.125 10.9875 42Z" fill="#E84849"/>
<path d="M64.5501 54.6875L43.2751 20.4C43.0251 20 42.5876 19.7625 42.1251 19.7625C41.6501 19.7625 41.2126 20 40.9751 20.4L19.6251 54.775C19.3626 55.2 19.3501 55.725 19.5876 56.15C19.8251 56.575 20.2876 56.85 20.7751 56.85H63.4376C64.1876 56.85 64.8001 56.2375 64.8001 55.4875C64.8126 55.1875 64.7126 54.9125 64.5501 54.6875Z" fill="#EDC92C"/>
<path d="M40.5375 42.675L40.1 36.075C40.0125 34.7875 39.975 33.8625 39.975 33.3C39.975 32.5375 40.175 31.9375 40.575 31.5125C40.975 31.0875 41.5 30.875 42.15 30.875C42.9375 30.875 43.475 31.15 43.7375 31.7C44 32.25 44.1375 33.0375 44.1375 34.0625C44.1375 34.675 44.1 35.2875 44.0375 35.9125L43.45 42.7C43.3875 43.5125 43.25 44.125 43.0375 44.5625C42.825 45 42.475 45.2125 41.9875 45.2125C41.4875 45.2125 41.15 45 40.95 44.5875C40.7625 44.1625 40.625 43.525 40.5375 42.675ZM42.075 51.7375C41.5125 51.7375 41.025 51.5625 40.6125 51.2C40.2 50.8375 39.9875 50.325 39.9875 49.675C39.9875 49.1 40.1875 48.625 40.5875 48.225C40.9875 47.825 41.475 47.625 42.05 47.625C42.625 47.625 43.125 47.825 43.5375 48.225C43.95 48.625 44.15 49.1125 44.15 49.675C44.15 50.3125 43.9375 50.825 43.525 51.1875C43.1 51.5625 42.625 51.7375 42.075 51.7375Z" fill="black"/>
</svg>
