<svg width="94" height="74" viewBox="0 0 94 74" fill="none" xmlns="http://www.w3.org/2000/svg">
<path d="M25.636 20.1018C25.636 20.1018 27.4226 21.4322 29.5248 20.5504C31.627 19.6687 31.9113 17.6615 30.9333 17.8301C29.6265 18.0557 28.6406 18.7066 27.733 18.8855C26.2489 19.1812 25.2108 18.9633 25.0804 19.1189C24.8692 19.3679 25.636 20.1018 25.636 20.1018Z" fill="#2CAA62"/>
<path d="M38.9274 6.3236C38.9274 6.3236 34.037 10.0761 31.3714 15.5402C29.1857 20.0163 28.1477 22.7263 28.1477 22.7263C27.3835 22.2854 26.9114 17.869 27.0783 15.5428C27.4435 10.4859 32.0991 1.96426 40.8784 3.56433C47.3337 4.29564 49.2168 5.84903 50.367 7.26238C53.896 11.5906 54.5063 19.6791 53.596 22.6122C53.596 22.6122 49.0708 6.80855 39.1022 8.8443L38.9274 6.3236Z" fill="#A55319"/>
<path d="M52.2398 11.9744C52.2398 11.9744 61.2016 22.039 60.5965 28.9398C59.9914 35.8406 58.9429 41.1776 60.9903 42.4302C60.9903 42.4302 57.4327 42.2305 56.0582 36.0143C54.6837 29.7982 54.6837 25.9186 52.7875 24.7464" fill="#EF8037"/>
<path d="M53.596 22.6122C53.596 22.6122 61.9736 27.8662 61.9684 33.8516C61.9632 39.8369 60.7582 44.6216 62.0231 47.1889C62.0231 47.1889 57.4249 43.1538 56.1051 39.4635C54.7854 35.7732 55.2053 30.597 55.2053 30.597" fill="#E95052"/>
<path d="M35.0125 47.0413C35.0125 47.0413 37.4799 57.832 35.3542 64.9973L48.3327 70.3681L63.7524 58.2833C58.3665 28.4499 48.3301 11.5441 48.3301 11.5441C46.0374 7.5556 41.9686 5.84661 37.8633 5.68323C26.734 5.23459 24.9266 20.574 25.4717 22.7679C27.8895 32.5136 27.4539 39.5726 27.4539 39.5726L40.4533 41.9403C40.4533 41.9403 40.3802 39.627 42.7641 36.9896C43.1632 36.5488 42.9102 36.4061 44.2743 35.4051C44.2743 35.4051 49.4307 33.6495 49.4464 28.3021" fill="white"/>
<path d="M48.3327 70.6273C48.2987 70.6273 48.2648 70.6195 48.2335 70.6066L35.2551 65.2358C35.1325 65.184 35.0673 65.0491 35.1064 64.922C37.1878 57.9046 34.7856 47.2046 34.7621 47.0982C34.7308 46.9582 34.8195 46.8208 34.9577 46.787C35.0986 46.7559 35.2368 46.8415 35.2707 46.9815C35.2942 47.0879 37.6781 57.6971 35.6724 64.8442L48.2935 70.0698L63.4707 58.1768C58.1474 28.8232 48.2075 11.8422 48.1057 11.6763C45.3802 6.9357 40.5132 6.04879 37.8528 5.94247C34.5926 5.8128 31.867 7.0524 29.7465 9.63534C25.962 14.2436 25.4169 21.4634 25.7247 22.7056C27.8843 31.4087 27.7721 38.058 27.7252 39.3572L40.2055 41.6316C40.2707 40.8925 40.6306 38.9604 42.5685 36.8158C42.6702 36.7043 42.7198 36.6161 42.7798 36.5124C42.9389 36.2401 43.1188 35.9289 44.1178 35.195C44.1386 35.1794 44.1621 35.1664 44.1882 35.1587C44.3916 35.0886 49.1673 33.3952 49.1829 28.2994C49.1829 28.1567 49.3003 28.04 49.4438 28.04C49.5872 28.04 49.7046 28.1567 49.7046 28.2994C49.6889 33.5145 44.8924 35.4465 44.3969 35.6332C43.5101 36.2867 43.3692 36.5331 43.231 36.7717C43.1632 36.8884 43.0928 37.0103 42.9545 37.1633C40.6775 39.6814 40.7088 41.909 40.7114 41.9324C40.7141 42.0102 40.6802 42.0854 40.6202 42.1372C40.5602 42.1891 40.4819 42.2099 40.4037 42.1969L27.4043 39.8292C27.2739 39.8059 27.1826 39.6892 27.1905 39.5595C27.1957 39.4895 27.5947 32.4253 25.2134 22.8327C24.7961 21.1548 25.5682 13.9013 29.337 9.31117C31.5671 6.59598 34.4361 5.28895 37.8685 5.42899C42.6467 5.6209 46.4417 7.75 48.5517 11.4221C48.6509 11.5881 58.6716 28.7065 64.0054 58.2469C64.0237 58.3402 63.9845 58.4362 63.9089 58.4958L48.4891 70.5806C48.4474 70.6092 48.39 70.6273 48.3327 70.6273Z" fill="#050506"/>
<path d="M26.4967 44.7201C26.4967 44.7201 24.6527 36.45 28.0694 38.1072C32.4199 40.2181 36.0584 38.867 37.3416 37.9178C39.35 36.4293 40.7923 38.6543 41.1183 40.5112C41.4887 42.6247 41.087 47.3705 39.3421 48.7449C37.5972 50.1194 30.2473 50.345 28.7241 49.3517C26.8801 48.151 26.4967 44.7201 26.4967 44.7201Z" fill="#A55319"/>
<path d="M28.9641 23.0609C29.5086 23.0609 29.95 22.622 29.95 22.0806C29.95 21.5392 29.5086 21.1003 28.9641 21.1003C28.4196 21.1003 27.9782 21.5392 27.9782 22.0806C27.9782 22.622 28.4196 23.0609 28.9641 23.0609Z" fill="black"/>
<path d="M41.1783 23.9244C41.7228 23.9244 42.1642 23.4855 42.1642 22.9441C42.1642 22.4028 41.7228 21.9639 41.1783 21.9639C40.6338 21.9639 40.1924 22.4028 40.1924 22.9441C40.1924 23.4855 40.6338 23.9244 41.1783 23.9244Z" fill="black"/>
<path d="M29.2823 10.8462C29.2823 10.8462 24.7492 4.99312 31.0037 0.460025C31.2775 0.260341 31.6688 0.415939 31.7262 0.750475L33.2702 9.68182" fill="white"/>
<path d="M29.2822 11.1057C29.204 11.1057 29.1257 11.072 29.0762 11.0045C28.9927 10.8982 27.0548 8.35157 27.5008 5.25776C27.7747 3.34649 28.904 1.66084 30.8524 0.250083C31.0558 0.102265 31.314 0.0711453 31.5488 0.164504C31.7809 0.257863 31.9426 0.460141 31.987 0.703912L33.531 9.63526C33.5545 9.7753 33.4606 9.91015 33.3172 9.93349C33.1737 9.95942 33.0407 9.86347 33.0146 9.72084L31.4705 0.789491C31.4549 0.693539 31.3819 0.654639 31.3506 0.641673C31.3193 0.628706 31.2384 0.605366 31.1575 0.665012C29.3266 1.99279 28.2702 3.55914 28.0173 5.32778C27.6025 8.20894 29.4726 10.6596 29.4909 10.6855C29.5796 10.7997 29.5587 10.963 29.4439 11.0486C29.3944 11.0875 29.337 11.1057 29.2822 11.1057Z" fill="#050506"/>
<path d="M42.172 9.848C42.172 9.848 47.3285 5.37714 41.6582 0.403174C41.3348 0.120504 40.8262 0.270916 40.7193 0.685845L38.5336 9.29303" fill="white"/>
<path d="M42.1721 10.1073C42.099 10.1073 42.026 10.0762 41.9764 10.0191C41.8825 9.9102 41.893 9.74682 41.9999 9.65346C42.0208 9.63531 44.0526 7.83815 44.0578 5.3382C44.0604 3.69145 43.1945 2.09657 41.4835 0.597634C41.3974 0.522428 41.2853 0.499089 41.1783 0.532802C41.074 0.563921 40.9984 0.644314 40.9697 0.750639L38.784 9.35782C38.7475 9.49527 38.6066 9.58085 38.4684 9.54454C38.3276 9.50824 38.2441 9.3682 38.2806 9.23075L40.4663 0.623567C40.5367 0.340897 40.748 0.123059 41.0244 0.03748C41.3061 -0.0480991 41.6061 0.0141403 41.8278 0.211232C43.6587 1.81649 44.582 3.54363 44.5768 5.34598C44.569 8.08192 42.4329 9.96725 42.3416 10.0451C42.2946 10.0865 42.232 10.1073 42.1721 10.1073Z" fill="#050506"/>
<path d="M39.9368 45.4126C34.8508 44.0978 29.2692 45.0054 27.6026 45.3322C27.3261 45.3867 27.1487 45.6564 27.2113 45.9313C27.3365 46.4681 27.5634 47.2902 27.8399 47.578C28.1946 47.9463 36.4183 47.5339 39.0813 47.3887C39.5899 47.3602 40.0255 47.0153 40.1663 46.5303C40.2185 46.3514 40.268 46.1672 40.302 45.9987C40.3593 45.7368 40.1976 45.48 39.9368 45.4126Z" fill="#6D1C28"/>
<path d="M30.0178 47.9877C27.8738 47.9877 27.733 47.8424 27.6521 47.7595C27.4044 47.5027 27.1696 46.9089 26.9584 45.9934C26.9114 45.7937 26.9479 45.5863 27.0601 45.4125C27.1722 45.2388 27.347 45.1221 27.553 45.0806C29.1701 44.7616 34.8482 43.8306 40.002 45.1636C40.3985 45.2673 40.6436 45.6589 40.5576 46.0557C40.5237 46.2139 40.4767 46.398 40.4167 46.6054C40.2446 47.1967 39.7151 47.6194 39.0944 47.6531C34.3839 47.9047 31.6323 47.9877 30.0178 47.9877ZM28.0095 47.3757C28.5441 47.5624 32.8607 47.4664 39.0683 47.1319C39.4647 47.1111 39.8064 46.8414 39.916 46.4602C39.9733 46.2657 40.0177 46.0946 40.0464 45.9467C40.0724 45.8197 39.9942 45.6952 39.869 45.6641C34.8221 44.3596 29.2431 45.2751 27.6521 45.5889C27.5869 45.6018 27.5322 45.6381 27.4983 45.6926C27.4643 45.7471 27.4513 45.8119 27.467 45.8741C27.6417 46.6184 27.8425 47.1734 28.0095 47.3757Z" fill="#090506"/>
<path d="M41.2461 39.7695C41.2461 39.7695 42.2425 37.9645 43.3901 36.52C44.2769 35.4023 45.7662 35.2597 47.1381 34.2846C48.51 33.3121 50.1871 32.726 50.7531 29.2069C50.7531 29.2069 54.0368 35.3738 41.2044 40.2518" fill="#DBDAD9"/>
<path d="M25.636 20.1018C25.636 20.1018 27.4226 21.4322 29.5248 20.5504C31.627 19.6687 31.9113 17.6615 30.9333 17.8301C29.6265 18.0557 28.6406 18.7066 27.733 18.8855C26.2489 19.1812 25.2108 18.9633 25.0804 19.1189C24.8692 19.3679 25.636 20.1018 25.636 20.1018Z" fill="#A55319"/>
<path d="M38.6431 17.6407C39.17 15.9032 43.4214 14.7362 45.774 16.0848C46.2696 16.3674 47.245 17.7393 46.2956 18.2943C45.3462 18.8492 44.1308 17.9831 43.2701 18.0349C40.7949 18.1905 37.9702 19.8554 38.6431 17.6407Z" fill="#A55319"/>
<path d="M39.3839 3.38284C39.3839 3.38284 32.3312 -0.21148 29.9004 7.91854C28.8623 11.3936 32.1017 14.866 29.3057 15.4339C29.3057 15.4339 32.3052 16.5335 35.3568 12.5502C38.4084 8.56427 39.5195 5.45489 39.5195 5.45489" fill="#A55319"/>
<path d="M28.4007 45.3114C28.4007 45.3114 34.097 44.1807 38.8701 45.4566C38.8701 45.4566 37.8346 46.2138 37.3156 46.2968C32.4904 47.0618 29.9761 46.2994 29.9761 46.2994L28.4007 45.3114Z" fill="white"/>
<path d="M28.1138 68.7471C28.1138 68.7471 24.2614 63.7913 29.2927 61.4211C29.2927 61.4211 30.3073 51.7454 35.5315 53.0032C35.5315 53.0032 52.8657 60.2333 62.6282 49.3103C62.6282 49.3103 69.0105 51.5328 70.4581 57.0098C70.4581 57.0098 73.8722 56.8231 72.0595 62.2457C70.2468 67.6709 54.801 69.7482 47.1146 71.3119C46.2982 71.4779 29.2301 72.4219 28.1138 68.7471Z" fill="#F5BB2E"/>
<path d="M12.441 47.015C12.441 47.015 14.778 46.7298 15.3492 48.7292C15.923 50.7286 15.7117 53.1638 15.7117 53.1638L11.6377 53.532" fill="white"/>
<path d="M11.6377 53.7914C11.5047 53.7914 11.3899 53.6903 11.3769 53.5554C11.3638 53.4128 11.4708 53.2857 11.6142 53.2727L15.4666 52.9227C15.5005 52.2899 15.5526 50.3864 15.0988 48.7967C14.5954 47.0384 12.5584 47.2589 12.4723 47.2692C12.3289 47.2874 12.1985 47.1837 12.1828 47.0436C12.1672 46.9036 12.2663 46.7713 12.4097 46.7558C13.2939 46.6468 15.0988 46.9062 15.6022 48.6567C16.1812 50.6794 15.983 53.0834 15.9752 53.1846C15.9647 53.3091 15.8656 53.4102 15.7378 53.4206L11.6638 53.7888C11.656 53.7914 11.6455 53.7914 11.6377 53.7914Z" fill="#050506"/>
<path d="M20.2552 73.7391C20.2552 73.7391 17.9574 65.0645 16.7785 63.6071C15.5996 62.1497 14.2094 59.5823 13.4921 58.9806C12.7775 58.379 10.9935 57.8033 9.30857 56.517C7.62106 55.2307 0.484989 50.8999 0.265899 49.4554C0.0468092 48.011 6.89337 45.6874 8.56784 45.6251C10.2423 45.5629 12.7462 46.4239 13.4374 47.4456C14.1286 48.4674 13.5782 49.8341 14.6528 50.9907C15.7274 52.1473 16.0873 52.6997 18.3799 53.4413C20.6726 54.183 21.142 54.5642 22.5766 56.7634C24.0111 58.9599 23.0121 61.4936 26.7236 68.8456" fill="white"/>
<path d="M20.2552 73.9985C20.1405 73.9985 20.0335 73.9207 20.0022 73.804C19.9788 73.7185 17.7044 65.1657 16.5724 63.7679C16.0221 63.0885 15.4457 62.199 14.8849 61.338C14.2642 60.3811 13.6773 59.4786 13.32 59.1778C13.0383 58.9418 12.5401 58.6903 11.9637 58.3972C11.1474 57.9849 10.1328 57.474 9.14685 56.7219C8.71911 56.3978 7.91839 55.8584 6.98986 55.2386C3.26794 52.7464 0.174601 50.594 0.00767532 49.4944C-0.0288397 49.2454 0.065056 48.9835 0.286754 48.719C1.0327 47.8269 3.13753 46.9478 4.32688 46.5043C6.04047 45.8638 7.78015 45.397 8.5574 45.3684C10.224 45.3088 12.8766 46.1542 13.6538 47.3031C13.9903 47.801 14.0607 48.3637 14.1311 48.9083C14.2172 49.5878 14.2981 50.2283 14.8458 50.817L15.1066 51.0997C15.9882 52.0566 16.429 52.5389 18.4634 53.1976C20.7977 53.9523 21.3246 54.3698 22.7982 56.6234C23.3981 57.544 23.5859 58.488 23.8441 59.795C24.2249 61.7166 24.7466 64.3489 26.9583 68.7315C27.0235 68.8586 26.9714 69.0142 26.8436 69.079C26.7132 69.1439 26.5593 69.092 26.4941 68.9649C24.2484 64.52 23.7189 61.8489 23.3329 59.8961C23.0851 58.6462 22.9078 57.7437 22.3601 56.9061C20.9464 54.7407 20.5291 54.4113 18.3017 53.6904C16.1395 52.9902 15.6361 52.443 14.7232 51.4497L14.465 51.1697C13.8025 50.4591 13.7034 49.6707 13.6147 48.9731C13.5495 48.4675 13.4895 47.9903 13.2235 47.5935C12.621 46.704 10.2345 45.8223 8.58087 45.8897C7.09158 45.9442 1.78908 47.7361 0.691027 49.0535C0.604956 49.1547 0.508452 49.3025 0.52671 49.4218C0.670161 50.3839 4.97371 53.2651 7.28459 54.8133C8.22094 55.4408 9.02688 55.9803 9.46766 56.3174C10.4144 57.0409 11.4082 57.5414 12.2037 57.9434C12.8349 58.2624 13.333 58.5139 13.6617 58.7888C14.079 59.1389 14.658 60.031 15.3283 61.0631C15.8813 61.9137 16.4499 62.7929 16.9819 63.449C18.1817 64.9323 20.4143 73.3217 20.5082 73.677C20.5447 73.8144 20.4613 73.957 20.323 73.9934C20.2996 73.9959 20.2761 73.9985 20.2552 73.9985Z" fill="#050506"/>
<path d="M12.0811 47.6739C10.5344 48.7786 7.08638 51.4523 6.57256 53.8459C6.57256 53.8459 6.15785 54.3776 5.43538 53.8796C4.7129 53.3817 0.654521 50.8118 0.636264 49.5073C0.623223 48.47 1.57261 48.4959 3.5392 47.3082C5.5058 46.1205 9.05818 45.5422 10.3779 46.0115C11.0196 46.2398 11.6142 46.5458 12.042 46.7636C12.3889 46.9374 12.3941 47.4508 12.0811 47.6739Z" fill="#A55319"/>
<path d="M43.8439 63.5785C35.8602 63.5785 29.3292 61.701 29.217 61.6673C29.0788 61.6258 29.0006 61.4831 29.0423 61.3457C29.084 61.2082 29.2275 61.1304 29.3657 61.1693C29.5509 61.2238 48.1605 66.5686 60.8442 59.048C60.9694 58.9754 61.1285 59.0143 61.2016 59.1388C61.2746 59.2607 61.2355 59.4214 61.1103 59.4941C55.7921 62.6501 49.4594 63.5785 43.8439 63.5785Z" fill="#D09511"/>
<path d="M48.0457 67.2015C47.9075 67.2015 47.7927 67.0952 47.7849 66.9578C47.7771 66.8151 47.8866 66.6933 48.03 66.6829C48.1813 66.6751 63.2385 65.7234 70.7319 57.3859C70.8284 57.2795 70.9928 57.2692 71.0997 57.3651C71.2066 57.4611 71.2171 57.6245 71.1206 57.7308C63.4837 66.2316 48.2126 67.1912 48.0587 67.2015C48.0561 67.2015 48.0509 67.2015 48.0457 67.2015Z" fill="#D09511"/>
<path d="M81.4544 40.3997C81.4544 40.3997 79.107 40.2285 78.6323 42.2539C78.1576 44.2793 78.4862 46.7014 78.4862 46.7014L82.5733 46.8726" fill="white"/>
<path d="M82.5785 47.1319C82.5759 47.1319 82.5707 47.1319 82.5681 47.1319L78.481 46.9607C78.3558 46.9555 78.2515 46.8622 78.2332 46.7351C78.2202 46.6339 77.902 44.2429 78.3819 42.1942C78.7966 40.4204 80.5858 40.0755 81.4752 40.1403C81.6187 40.1507 81.7256 40.2752 81.7152 40.4178C81.7048 40.5604 81.5796 40.6642 81.4361 40.659C81.3501 40.6538 79.3052 40.5319 78.8879 42.3135C78.5097 43.9239 78.6584 45.8222 78.7236 46.4524L82.589 46.6132C82.7324 46.6184 82.8446 46.7403 82.8393 46.8829C82.8315 47.0229 82.7168 47.1319 82.5785 47.1319Z" fill="#050506"/>
<path d="M74.7904 70.6999C74.7904 70.6999 76.8353 58.6981 77.9412 57.1862C79.047 55.6743 80.3094 53.0421 80.9954 52.4067C81.6813 51.7714 83.4341 51.1075 85.0538 49.7434C86.6735 48.3767 93.5904 43.7036 93.7365 42.2487C93.8826 40.7939 86.9317 38.8074 85.2546 38.8282C83.5775 38.8463 81.1206 39.8292 80.4816 40.8821C79.8426 41.9349 80.4581 43.2757 79.4409 44.4816C78.4237 45.6875 78.0924 46.258 75.8389 47.1086C73.5854 47.9618 73.1368 48.3663 71.8119 50.6303C70.4869 52.8943 70.5312 62.4454 67.1849 69.966" fill="white"/>
<path d="M74.7904 70.9591C74.7748 70.9591 74.7617 70.9591 74.7461 70.9565C74.6052 70.9332 74.5087 70.7983 74.5322 70.6583C74.6157 70.1655 76.5979 58.5787 77.7273 57.0356C78.2254 56.3536 78.7523 55.4485 79.2609 54.572C79.879 53.5087 80.4137 52.5881 80.8128 52.2199C81.1284 51.9294 81.6135 51.6519 82.229 51.3044C83.0037 50.8636 83.9713 50.3164 84.8816 49.5488C85.3041 49.1935 86.084 48.6126 86.9864 47.9409C89.219 46.2812 93.3739 43.1926 93.473 42.2253C93.4861 42.1034 93.3791 41.9633 93.2905 41.8648C92.1298 40.6044 86.7569 39.077 85.2546 39.09C83.5983 39.1081 81.2588 40.1013 80.7006 41.0194C80.4528 41.4265 80.4163 41.9089 80.3772 42.4172C80.3224 43.1174 80.2624 43.9109 79.6365 44.6526L79.3913 44.9456C78.528 45.983 78.0533 46.5535 75.925 47.3574C73.7367 48.1847 73.335 48.5374 72.0309 50.7676C71.5275 51.6312 71.2172 53.6877 70.8259 56.2914C70.2391 60.1917 69.4384 65.5313 67.417 70.0774C67.3596 70.207 67.2057 70.2667 67.0727 70.2096C66.9423 70.1526 66.8823 69.9996 66.9397 69.8673C68.9324 65.3861 69.7305 60.0828 70.3121 56.2136C70.7112 53.5554 71.0268 51.4548 71.5823 50.5057C72.9412 48.1821 73.4472 47.7412 75.7424 46.8725C77.7403 46.1152 78.1576 45.6147 78.9922 44.6137L79.24 44.3181C79.7591 43.7034 79.8086 43.0603 79.8608 42.3757C79.9025 41.8285 79.9468 41.2631 80.2572 40.7497C80.9745 39.5671 83.5775 38.5894 85.2519 38.5713C85.2598 38.5713 85.2676 38.5713 85.2754 38.5713C86.7282 38.5713 92.3567 40.078 93.6791 41.5147C93.9138 41.7714 94.0208 42.0282 93.9973 42.2771C93.8851 43.3819 90.9013 45.6847 87.3046 48.3558C86.4074 49.0223 85.6327 49.598 85.2233 49.9429C84.2765 50.7417 83.2854 51.3018 82.4925 51.7531C81.9291 52.072 81.444 52.3469 81.1753 52.5985C80.8336 52.9149 80.2911 53.8459 79.7199 54.8313C79.2035 55.7182 78.6714 56.6363 78.155 57.3416C77.276 58.5423 75.6172 67.4244 75.0512 70.7464C75.0251 70.8683 74.9156 70.9591 74.7904 70.9591Z" fill="#050506"/>
<path d="M81.8456 41.0401C83.4444 42.067 87.0203 44.5696 87.6515 46.9373C87.6515 46.9373 88.0923 47.4481 88.7887 46.9165C89.4851 46.3849 93.413 43.6178 93.3661 42.316C93.3296 41.2787 92.3802 41.3513 90.3588 40.2621C88.3348 39.1729 84.759 38.7657 83.4627 39.3C82.8341 39.5593 82.2551 39.8938 81.8352 40.1324C81.5013 40.3217 81.5248 40.8352 81.8456 41.0401Z" fill="#A55319"/>
<path d="M30.4116 22.2828C30.3386 22.2828 30.2681 22.2543 30.216 22.1947C29.7752 21.6993 29.2875 21.4374 28.7658 21.4167C27.8555 21.3778 27.1226 22.0832 27.1148 22.0883C27.0105 22.1869 26.8462 22.1869 26.7471 22.0832C26.6479 21.9794 26.6479 21.816 26.7523 21.7175C26.7888 21.6812 27.6573 20.8513 28.7841 20.898C29.4544 20.9214 30.0699 21.2429 30.6098 21.8498C30.7063 21.9561 30.6959 22.1221 30.5863 22.2154C30.5342 22.2621 30.4742 22.2828 30.4116 22.2828Z" fill="#050506"/>
<path d="M43.3901 23.092C43.3353 23.092 43.2779 23.0738 43.231 23.0375C41.0505 21.3752 39.7725 22.6278 39.7177 22.6822C39.6186 22.7834 39.4517 22.786 39.35 22.6874C39.2482 22.5889 39.243 22.4255 39.3421 22.3218C39.3604 22.3036 39.7673 21.8861 40.5002 21.7253C41.1601 21.5801 42.2242 21.6164 43.5492 22.6252C43.664 22.7133 43.6848 22.8741 43.5988 22.9882C43.5466 23.0557 43.4683 23.092 43.3901 23.092Z" fill="#050506"/>
<circle cx="75" cy="18" r="18" fill="#FFCF87"/>
<path d="M74.1 9.09998C73.9138 9.09998 73.736 9.17345 73.6051 9.30505L73.1102 9.79998H70.4141C69.376 9.79998 68.4816 10.575 68.3346 11.6033L68.0926 13.3H69.5076L69.7209 11.8002C69.7692 11.4579 70.0683 11.2 70.4141 11.2H73.4C73.5862 11.2 73.764 11.1265 73.8949 10.9949L74.3899 10.5H76.6102L77.1051 10.9949C77.236 11.1265 77.4138 11.2 77.6 11.2H80.5859C80.9317 11.2 81.2308 11.4585 81.2791 11.8015L81.4924 13.3H82.9074L82.6654 11.6033C82.5177 10.575 81.624 9.79998 80.5859 9.79998H77.8899L77.3949 9.30505C77.264 9.17345 77.0862 9.09998 76.9 9.09998H74.1ZM67.1 14.7C66.7136 14.7 66.4 15.0136 66.4 15.4V16.8C66.4 17.1864 66.7136 17.5 67.1 17.5H67.2162L68.3045 24.0297C68.4172 24.7045 69.0015 25.2 69.6854 25.2H81.3133C81.9979 25.2 82.5815 24.7045 82.6942 24.0297L83.7838 17.5H83.9C84.2864 17.5 84.6 17.1864 84.6 16.8V15.4C84.6 15.0136 84.2864 14.7 83.9 14.7H67.1ZM72 18.2C72.3864 18.2 72.7 18.5136 72.7 18.9V22.4C72.7 22.7864 72.3864 23.1 72 23.1C71.6136 23.1 71.3 22.7864 71.3 22.4V18.9C71.3 18.5136 71.6136 18.2 72 18.2ZM75.5 18.2C75.8864 18.2 76.2 18.5136 76.2 18.9V22.4C76.2 22.7864 75.8864 23.1 75.5 23.1C75.1136 23.1 74.8 22.7864 74.8 22.4V18.9C74.8 18.5136 75.1136 18.2 75.5 18.2ZM79 18.2C79.3864 18.2 79.7 18.5136 79.7 18.9V22.4C79.7 22.7864 79.3864 23.1 79 23.1C78.6136 23.1 78.3 22.7864 78.3 22.4V18.9C78.3 18.5136 78.6136 18.2 79 18.2Z" fill="white"/>
</svg>
