<svg width="106" height="109" viewBox="0 0 106 109" fill="none" xmlns="http://www.w3.org/2000/svg">
<g clip-path="url(#clip0)">
<path d="M72.1646 95.0508C72.1646 95.0508 71.522 98.2567 70.7626 99.0879C70.0031 99.9213 68.9473 99.5035 68.9473 99.5035L68.9083 95.934" fill="white"/>
<path d="M69.5769 99.8261C69.1853 99.8261 68.8932 99.7136 68.8694 99.7049C68.7872 99.6725 68.7331 99.5945 68.7331 99.5058L68.6941 95.9362C68.692 95.8172 68.7893 95.7198 68.9083 95.7176H68.9105C69.0295 95.7176 69.1247 95.8128 69.1269 95.9319L69.1636 99.3434C69.4428 99.4127 70.0984 99.4971 70.6046 98.943C71.1953 98.2957 71.7795 95.8843 71.9548 95.0076C71.9786 94.8907 72.0911 94.8149 72.2101 94.8387C72.3269 94.8625 72.4027 94.9773 72.3789 95.0942C72.3529 95.2284 71.7146 98.3672 70.9249 99.2352C70.49 99.7071 69.9793 99.8261 69.5769 99.8261Z" fill="#050506"/>
<path d="M32.1326 61.7385C32.1326 61.7385 30.3476 68.9577 30.0988 70.5032C30.0988 70.5032 25.3517 61.8186 30.2437 58.459L32.1326 61.7385Z" fill="#8F3E2D"/>
<path d="M31.8751 57.5109L30.486 66.2454C30.486 66.2454 27.0242 62.481 27.3249 58.459C27.6257 54.4371 31.0226 53.2075 31.0226 53.2075L31.8751 57.5109Z" fill="#A45319"/>
<path d="M32.5416 50.2702L31.1525 59.0046C31.1525 59.0046 27.6907 55.2403 27.9914 51.2183C28.2922 47.1963 31.6891 45.9668 31.6891 45.9668L32.5416 50.2702Z" fill="#A45319"/>
<path d="M33.7877 42.2001C33.7877 42.2001 32.0027 49.4193 31.7538 50.9649C31.7538 50.9649 27.0068 42.2802 31.8988 38.9207L33.7877 42.2001Z" fill="#A45319"/>
<path d="M36.7886 35.559C36.7886 35.559 34.5146 38.7995 33.3289 43.7285C33.3289 43.7285 32.4115 41.6569 32.074 40.4793C31.3297 37.8882 32.431 34.1389 34.7851 33.6324C37.1391 33.128 36.648 35.3533 36.7886 35.559Z" fill="#A45319"/>
<path d="M43.0092 32.8683C43.0092 32.7687 44.1495 28.4891 44.8851 28.4047C46.0167 28.2748 48.2193 34.548 48.2193 34.548" fill="white"/>
<path d="M48.2194 34.7667C48.1307 34.7667 48.0463 34.7104 48.016 34.6216C46.7048 30.8897 45.4023 28.6211 44.9263 28.6211C44.9198 28.6211 44.9155 28.6211 44.9111 28.6211C44.4308 28.7164 43.3252 32.2903 43.2256 32.8899C43.2148 32.9981 43.1239 33.0847 43.0114 33.0869H43.0093C42.8903 33.0869 42.7929 32.9916 42.7929 32.8726C42.7929 32.8271 43.9094 28.3008 44.8614 28.1925C46.0709 28.0518 47.8948 32.97 48.4249 34.4788C48.4639 34.5913 48.4054 34.7147 48.2929 34.7537C48.267 34.7623 48.2432 34.7667 48.2194 34.7667Z" fill="#050506"/>
<path d="M35.4364 37.4075C35.4364 37.4075 30.3323 41.6351 28.4326 67.6588C28.4326 67.6588 29.2764 73.5359 33.3398 75.0209C37.4032 76.5058 45.7203 76.0924 45.7203 76.0924L52.7782 74.5208C52.7782 74.5208 44.7445 57.0324 46.9493 52.8871" fill="white"/>
<path d="M43.0504 76.3652C40.2484 76.3652 35.9059 76.1899 33.2619 75.2244C31.544 74.5967 30.1246 73.0901 29.1618 70.8691C28.4391 69.2066 28.2249 67.7498 28.2163 67.6892C28.2141 67.6741 28.2141 67.6589 28.2141 67.6416C30.1008 41.8235 35.0859 37.4141 35.2958 37.2387C35.3867 37.163 35.523 37.1759 35.6009 37.2669C35.6766 37.3578 35.6636 37.4941 35.5727 37.5721C35.5489 37.5916 34.2875 38.7085 32.8141 42.9448C31.451 46.8629 29.6227 54.3288 28.6468 67.6502C28.6771 67.8386 28.9086 69.2045 29.5621 70.7068C30.2004 72.1744 31.386 74.0793 33.4112 74.8175C37.2972 76.2375 45.2508 75.8977 45.6879 75.876L52.4666 74.3672C51.4627 72.1484 44.6406 56.7576 46.7524 52.7854C46.8086 52.6793 46.9385 52.6404 47.0445 52.6967C47.1505 52.7529 47.1894 52.8828 47.1332 52.9889C45.0041 56.9935 52.8885 74.2568 52.9686 74.43C52.9967 74.4884 52.9946 74.5577 52.9664 74.6162C52.9383 74.6746 52.8842 74.7179 52.8193 74.7309L45.7614 76.3024C45.7506 76.3046 45.7376 76.3068 45.7246 76.3068C45.6078 76.3154 44.5498 76.3652 43.0504 76.3652Z" fill="#050506"/>
<path d="M40.4236 52.6036C47.7433 57.4439 52.6851 53.0842 52.6851 53.0842C55.5671 52.7552 56.3698 53.3937 56.3698 53.3937L60.325 45.3953C55.4741 43.2869 52.8734 39.5983 51.7006 37.7128C51.2636 37.0115 51.0256 36.5591 50.9455 36.5331C48.8251 34.0978 45.584 32.7124 42.1329 33.1042C42.1329 33.1042 37.2236 33.3921 34.9993 37.9012" fill="white"/>
<path d="M47.2153 55.0887C45.2875 55.0887 42.9421 54.528 40.3046 52.7833C40.2051 52.7183 40.177 52.5841 40.244 52.4824C40.3089 52.3828 40.4431 52.3547 40.5448 52.4218C42.5916 53.7747 45.7592 55.225 49.2319 54.4522C51.3112 53.989 52.5336 52.9326 52.5445 52.9218C52.5769 52.8937 52.618 52.8742 52.6635 52.8699C54.8185 52.6231 55.8613 52.9153 56.2789 53.0993L60.0351 45.5035C56.5883 43.9536 53.7236 41.3733 51.521 37.8297C51.3761 37.5959 51.2527 37.3903 51.1511 37.2193C51.0212 37.0028 50.8893 36.7798 50.8373 36.7214C50.82 36.7106 50.8027 36.6954 50.7876 36.6803C48.6347 34.2082 45.4109 32.9549 42.1632 33.325C42.1026 33.3293 37.3404 33.6649 35.1984 38.0029C35.1464 38.1111 35.0166 38.1544 34.9084 38.1003C34.8002 38.0483 34.757 37.9185 34.8111 37.8102C37.0656 33.2406 42.0766 32.8964 42.1264 32.8921C45.4931 32.5068 48.8446 33.8056 51.0905 36.3685C51.1878 36.44 51.2852 36.6023 51.5232 36.9963C51.6249 37.1673 51.7461 37.3708 51.891 37.6002C54.0915 41.1395 56.9583 43.696 60.418 45.1983C60.4721 45.2221 60.5154 45.2675 60.5349 45.3216C60.5543 45.3779 60.5522 45.4385 60.5262 45.4927L56.571 53.4911C56.5429 53.5496 56.4888 53.5929 56.4239 53.6059C56.3612 53.621 56.2941 53.6059 56.2422 53.5647C56.2378 53.5626 55.4416 52.9997 52.7781 53.2941C52.419 53.5777 50.3786 55.0887 47.2153 55.0887Z" fill="#050506"/>
<path d="M64.5097 51.1273C64.5097 51.1273 63.7698 44.6376 62.3006 44.5618C61.2058 44.5055 61.3746 44.8475 60.3663 45.4601C60.0245 45.6679 59.5441 45.9082 58.8345 46.1745C57.837 46.549 56.9715 46.7221 56.2445 46.8369C54.9247 47.0468 54.0528 47.0663 53.6611 47.7374C53.051 48.7807 52.0232 53.1058 54.241 53.3396C56.4587 53.5733 58.9924 53.9457 60.4356 53.7812C61.8722 53.6188 64.7824 53.53 64.5097 51.1273Z" fill="#A45319"/>
<path d="M64.0184 49.4929C64.0184 49.4929 64.3971 50.4995 64.4901 51.3675C64.6178 52.5581 63.1703 54.8267 61.0239 55.2531C56.3374 56.1818 54.1738 55.3181 53.1244 52.517C53.1266 52.5148 62.0906 51.1705 64.0184 49.4929Z" fill="#A45319"/>
<path d="M36.4556 33.7969C36.4556 33.7969 34.6317 30.5975 39.0845 29.1147C41.1616 28.4242 48.2087 30.6127 48.6414 32.2665C48.6414 32.2665 39.2143 36.6456 36.4556 33.7969Z" fill="#A45319"/>
<path d="M45.7635 55.1946C42.4899 54.6621 41.1052 53.556 39.2163 52.1554C38.8009 51.8481 38.353 51.4627 38.4828 51.9628C39.5798 56.2012 41.2653 58.9071 46.1227 60.3552C46.4689 60.4591 47.0228 59.9201 46.986 59.5586L46.2568 55.5605C46.2374 55.3462 45.9777 55.2293 45.7635 55.1946Z" fill="#DAD9D8"/>
<path d="M38.8919 32.472C38.8919 32.472 41.1876 36.4291 44.34 36.3338C44.34 36.3338 40.4216 37.6023 38.5154 35.4312C36.6092 33.26 38.8919 32.472 38.8919 32.472Z" fill="#A45319"/>
<path d="M38.8207 36.782C38.8207 36.782 39.1258 33.3727 36.4601 30.353C36.1486 29.9979 35.56 30.2101 35.5362 30.682C35.4454 32.496 33.2817 37.7626 37.2261 39.213" fill="white"/>
<path d="M37.226 39.4295C37.2022 39.4295 37.1762 39.4251 37.1524 39.4165C33.8398 38.1999 34.6166 34.3944 35.0796 32.1215C35.1986 31.5349 35.3025 31.0262 35.3198 30.6712C35.3349 30.366 35.5318 30.104 35.8218 30.0023C36.1117 29.9006 36.4189 29.9806 36.6223 30.2101C39.3182 33.2645 39.0478 36.6587 39.0348 36.8015C39.024 36.9206 38.9223 37.005 38.8011 36.9985C38.6821 36.9877 38.5934 36.8838 38.6042 36.7647C38.6064 36.7323 38.866 33.4095 36.2978 30.498C36.1723 30.3551 36.01 30.3963 35.9646 30.4114C35.917 30.4287 35.7633 30.498 35.7525 30.6928C35.733 31.0803 35.627 31.602 35.5037 32.2059C35.0385 34.481 34.3375 37.9185 37.3017 39.0095C37.4142 39.0506 37.4705 39.174 37.4294 39.2866C37.3969 39.3753 37.3147 39.4295 37.226 39.4295Z" fill="#050506"/>
<path d="M40.601 39.6783C40.601 39.6783 41.3237 38.544 42.5959 37.8405C43.8681 37.137 45.056 37.9444 44.5605 38.4206C44.0672 38.8968 41.5227 40.7563 41.0792 40.6632C40.6378 40.5745 40.0882 40.3277 40.601 39.6783Z" fill="#A45319"/>
<path d="M50.5129 35.2364C50.5129 35.2364 49.509 34.9572 48.4942 35.2083C47.4795 35.4615 47.38 36.5395 47.8927 36.559C48.4055 36.5785 50.699 36.3339 50.857 36.0525C51.0149 35.7711 51.1339 35.3446 50.5129 35.2364Z" fill="#A45319"/>
<path d="M63.8888 50.4714C63.8888 50.4714 64.1701 47.9907 63.5556 48.0773C62.9433 48.166 62.067 49.6099 59.7281 50.2485C57.387 50.887 54.0766 49.9064 54.0853 50.6511C54.0939 51.3957 56.1775 53.4565 57.9171 53.5214C59.6589 53.5864 62.4911 53.3288 63.8888 50.4714Z" fill="#6D1C28"/>
<path d="M58.3281 53.7465C58.1896 53.7465 58.0512 53.7444 57.9084 53.7379C56.1472 53.6729 53.8775 51.6013 53.8667 50.6554C53.8645 50.5342 53.9099 50.4281 53.9965 50.3437C54.2626 50.0926 54.8619 50.1185 55.987 50.19C57.1143 50.2614 58.5164 50.3545 59.6674 50.0384C61.1149 49.6423 61.9652 48.9453 62.5884 48.4366C62.967 48.127 63.2396 47.9019 63.5231 47.8608C63.6529 47.8413 63.7784 47.8846 63.8757 47.9777C64.302 48.3911 64.1549 50.0081 64.1008 50.493C64.0986 50.5168 64.09 50.5407 64.0791 50.5645C63.0514 52.6772 61.1149 53.7465 58.3281 53.7465ZM54.8728 50.5753C54.5807 50.5753 54.3535 50.5969 54.2972 50.6597C54.3102 51.2485 56.2856 53.2465 57.9257 53.3071C60.7406 53.4067 62.6706 52.4369 63.6767 50.4108C63.7849 49.4064 63.7373 48.3998 63.5728 48.2894C63.4235 48.3175 63.1639 48.5297 62.8653 48.7743C62.2508 49.2786 61.3205 50.0406 59.7843 50.4584C58.5618 50.7918 57.1208 50.6987 55.9611 50.6251C55.6171 50.6013 55.2016 50.5753 54.8728 50.5753Z" fill="#090506"/>
<path d="M63.1012 48.5621C63.1012 48.5621 62.0324 49.4929 61.3162 49.8003C60.375 50.203 59.0487 51.0061 55.9936 50.4714L55.7469 50.5233C55.7469 50.5233 56.0109 51.2377 56.541 51.4433C57.0711 51.649 58.1053 52.3828 60.282 51.755C62.4608 51.1273 63.0753 49.77 63.1597 49.48C63.244 49.1899 63.1012 48.5621 63.1012 48.5621Z" fill="white"/>
<path d="M63.4798 50.9022C63.4798 50.9022 62.279 53.082 59.503 53.3093C56.727 53.5366 55.9827 52.6166 55.9827 52.6166C55.9827 52.6166 56.0887 52.2659 56.7552 52.1577C57.4865 52.0386 58.4536 52.4088 59.728 52.1317C63.2353 51.3719 62.3287 50.6619 63.2418 50.5969C63.5902 50.5731 63.4798 50.9022 63.4798 50.9022Z" fill="white"/>
<path d="M44.0696 43.3192C44.0306 43.3192 43.9895 43.3084 43.9549 43.2846C43.8532 43.2197 43.8229 43.0876 43.8878 42.9859C45.1276 41.0269 46.7049 41.4078 46.7698 41.4252C46.8845 41.4555 46.9559 41.5724 46.9256 41.6892C46.8953 41.804 46.7785 41.8754 46.6638 41.8451C46.6076 41.83 45.318 41.5377 44.2535 43.2197C44.2102 43.2846 44.141 43.3192 44.0696 43.3192Z" fill="#050506"/>
<path d="M52.4344 38.3318C52.4344 38.3318 51.2162 38.5807 51.0172 39.1219Z" fill="white"/>
<path d="M51.015 39.3385C50.989 39.3385 50.9652 39.3341 50.9392 39.3255C50.8267 39.2844 50.7705 39.1588 50.8116 39.0484C51.0474 38.412 52.2526 38.1479 52.3889 38.1219C52.5057 38.0981 52.6204 38.1739 52.6442 38.2908C52.668 38.4077 52.5923 38.5224 52.4754 38.5462C52.0189 38.6393 51.3265 38.9034 51.2162 39.1999C51.1859 39.2844 51.1037 39.3385 51.015 39.3385Z" fill="#050506"/>
<path d="M45.3678 43.867C45.853 43.867 46.2463 43.4735 46.2463 42.9881C46.2463 42.5027 45.853 42.1093 45.3678 42.1093C44.8827 42.1093 44.4894 42.5027 44.4894 42.9881C44.4894 43.4735 44.8827 43.867 45.3678 43.867Z" fill="#1D1D1B"/>
<path d="M51.7808 40.0203C52.1381 40.0203 52.4277 39.7305 52.4277 39.3731C52.4277 39.0156 52.1381 38.7258 51.7808 38.7258C51.4235 38.7258 51.1339 39.0156 51.1339 39.3731C51.1339 39.7305 51.4235 40.0203 51.7808 40.0203Z" fill="#1D1D1B"/>
<path d="M60.4333 80.58C60.4333 80.58 63.88 85.3228 65.0592 91.5571C65.0592 91.5571 64.7606 91.6285 65.0592 91.5571C65.3578 91.4856 73.8393 81.8333 74.0211 80.8441C74.205 79.8548 79.1317 78.8309 79.1057 79.1535C79.0797 79.476 74.5166 92.4446 70.2974 98.0792C70.2974 98.0792 68.0321 101.774 66.736 102.506C65.44 103.238 63.854 103.197 62.2832 101.891C60.7102 100.586 55.9999 95.8301 53.4122 89.4097" fill="white"/>
<path d="M64.9814 103.203C64.025 103.203 63.0579 102.82 62.1426 102.06C60.1326 100.393 55.6776 95.6224 53.2089 89.492C53.1634 89.3816 53.2175 89.256 53.3279 89.2106C53.4382 89.1673 53.5659 89.2193 53.6091 89.3296C56.6556 96.8887 62.3612 101.677 62.4174 101.725C63.7913 102.863 65.2864 103.073 66.6279 102.316C67.8612 101.621 70.0898 97.9992 70.1114 97.9645C74.0817 92.6589 78.3074 80.9545 78.8353 79.3029C78.1256 79.3224 75.6482 79.8635 74.6053 80.5151C74.2851 80.7164 74.2375 80.8463 74.231 80.8809C74.1207 81.4762 71.7298 84.366 69.7436 86.6844C69.7046 86.7299 66.0156 91.0332 65.228 91.6848C65.1999 91.7238 65.1566 91.7541 65.1047 91.7671L64.9727 91.7995C64.8559 91.8277 64.739 91.7562 64.7109 91.6394C64.7066 91.622 64.7044 91.6047 64.7044 91.5874C64.7044 91.5138 64.7434 91.4445 64.8039 91.4056C63.6161 85.3878 60.2862 80.7532 60.2538 80.7056C60.1824 80.6082 60.204 80.474 60.3014 80.4025C60.3987 80.3311 60.5329 80.3527 60.6043 80.4502C60.6389 80.4978 63.9579 85.115 65.1934 91.1458C66.682 89.6608 73.662 81.5671 73.8026 80.803C74.0125 79.6665 78.3723 78.7942 79.0322 78.8829C79.3265 78.9241 79.3156 79.1449 79.3135 79.1708C79.2832 79.5323 74.6443 92.6221 70.4641 98.2091C70.3819 98.3455 68.1641 101.945 66.8356 102.694C66.2406 103.034 65.6131 103.203 64.9814 103.203Z" fill="#050506"/>
<path d="M30.1744 108.632C29.0947 108.009 29.3825 107.214 29.3674 105.883C29.3522 104.549 21.5068 88.5178 21.5068 88.5178C17.4456 88.981 16.7056 90.5634 16.6407 89.8491C16.5779 89.1369 16.8938 80.2596 16.8938 80.2596C16.7813 76.9909 18.1358 71.5446 28.0064 67.1827C28.0064 67.1827 42.8513 74.0426 50.29 68.6331C50.29 68.6331 60.4462 70.1527 62.8176 82.9134C62.8176 82.9134 63.4494 85.8942 63.6246 86.5588" fill="white"/>
<path d="M30.1744 108.848C30.1376 108.848 30.1008 108.84 30.0662 108.82C29.0796 108.251 29.1055 107.515 29.138 106.584C29.1466 106.363 29.1531 106.136 29.151 105.887C29.1401 104.952 24.525 95.1829 21.3791 88.7516C19.0488 89.0395 17.8653 89.7041 17.2898 90.0266C16.9674 90.2084 16.7899 90.308 16.6104 90.2128C16.4503 90.1284 16.4329 89.94 16.4265 89.8686C16.3637 89.1499 16.6666 80.6146 16.6796 80.2509C16.4459 73.4972 22.6643 69.3063 27.9198 66.9836C27.9761 66.9577 28.041 66.9598 28.0973 66.9858C28.2444 67.0551 42.9119 73.7288 50.1623 68.4578C50.2077 68.4253 50.2661 68.4102 50.3224 68.4188C50.4284 68.434 52.9448 68.8279 55.79 70.8108C58.4102 72.6356 61.7941 76.2095 63.0318 82.8745C63.0361 82.8983 63.6635 85.8531 63.8345 86.5025C63.8648 86.6173 63.7955 86.7363 63.6809 86.7666C63.5662 86.7969 63.4472 86.7276 63.4169 86.6129C63.2416 85.9527 62.6336 83.0802 62.6077 82.9589C61.3982 76.4454 58.1073 72.9581 55.5606 71.1788C53.0811 69.447 50.8049 68.9492 50.344 68.8626C48.1652 70.4103 43.9742 71.8628 36.3148 70.1484C32.1 69.2046 28.6057 67.6872 28.0085 67.4209C22.8936 69.6981 16.8895 73.7656 17.1145 80.2531C17.0085 83.2468 16.8224 88.9464 16.857 89.7712C16.9219 89.7387 17.0042 89.6911 17.082 89.6478C17.6944 89.3036 18.9688 88.5871 21.4873 88.3014C21.5781 88.2905 21.6668 88.3382 21.7058 88.4204C22.5107 90.0656 29.5729 104.536 29.588 105.879C29.5902 106.138 29.5815 106.383 29.575 106.597C29.5426 107.504 29.5253 108.004 30.2869 108.444C30.3907 108.504 30.4254 108.636 30.3669 108.74C30.3215 108.809 30.2479 108.848 30.1744 108.848Z" fill="#050506"/>
<path d="M56.8199 84.6755C56.0626 92.3342 55.4525 92.3883 55.0803 92.832C54.7103 93.2758 55.2188 104.824 54.8748 105.573" fill="white"/>
<path d="M54.8748 105.79C54.8445 105.79 54.8143 105.783 54.784 105.77C54.6758 105.72 54.6282 105.591 54.6779 105.482C54.8272 105.14 54.7861 101.867 54.7537 99.2373C54.6931 94.3884 54.7061 92.9424 54.9159 92.6935C54.9484 92.6545 54.983 92.6199 55.0176 92.5809C55.353 92.2259 55.9156 91.6306 56.6058 84.6539C56.6166 84.5348 56.7269 84.4482 56.8416 84.459C56.9606 84.4699 57.0472 84.5759 57.0363 84.695C56.331 91.8211 55.7533 92.4315 55.3314 92.8775C55.3054 92.9034 55.2816 92.9294 55.26 92.9554C55.115 93.3472 55.1539 96.605 55.1886 99.2286C55.2405 103.32 55.2448 105.288 55.0739 105.66C55.0349 105.742 54.9571 105.79 54.8748 105.79Z" fill="#050506"/>
<path d="M65.0592 91.5592C65.0592 91.5592 64.2392 94.278 64.0055 95.4902Z" fill="white"/>
<path d="M64.0034 95.7067C63.9904 95.7067 63.9752 95.7045 63.9623 95.7023C63.8454 95.6807 63.7675 95.566 63.7913 95.4491C64.025 94.239 64.8169 91.6089 64.8515 91.4964C64.8861 91.3817 65.0073 91.3167 65.122 91.3514C65.2367 91.386 65.3016 91.5072 65.2669 91.6219C65.2583 91.6479 64.4469 94.3451 64.2176 95.5313C64.1959 95.6331 64.1051 95.7067 64.0034 95.7067Z" fill="#050506"/>
<path d="M72.8916 82.7577C73.5732 81.1298 74.2742 79.8938 74.6636 79.7076C74.999 79.5475 76.1263 79.3375 76.1263 79.3375C76.4184 79.2249 76.5633 78.5387 76.7083 78.2595C77.1757 77.359 77.8204 76.6966 78.4825 76.7139C79.097 76.7312 80.1442 75.3718 83.632 77.2183C87.122 79.0647 84.6511 81.4654 83.1019 82.5282C82.1434 83.1863 79.2809 82.7966 77.9221 84.0651C77.9221 84.0651 77.7144 85.7601 75.5616 86.5588" fill="white"/>
<path d="M75.5594 86.7754C75.4707 86.7754 75.3885 86.7213 75.356 86.6347C75.3149 86.5221 75.3712 86.3987 75.4837 86.3554C77.4764 85.6173 77.6971 84.102 77.7058 84.0371C77.7123 83.9873 77.7361 83.9396 77.7729 83.905C78.6254 83.1106 79.9711 82.9352 81.1612 82.7794C81.9163 82.682 82.6281 82.5889 82.9786 82.3464C83.5152 81.9763 85.2635 80.6688 85.1877 79.3245C85.1466 78.6102 84.5884 77.963 83.5304 77.4045C80.9059 76.0169 79.7483 76.4867 79.0581 76.7681C78.8331 76.859 78.66 76.9261 78.4739 76.9261C78.4674 76.9261 78.4609 76.9261 78.4544 76.9261C77.9438 76.9261 77.3639 77.4586 76.8987 78.3548C76.862 78.424 76.823 78.5366 76.7797 78.6557C76.6499 79.015 76.5006 79.422 76.202 79.5367C76.1891 79.541 76.1782 79.5453 76.1653 79.5475C75.858 79.6038 75.0077 79.7791 74.7545 79.9004C74.4927 80.0259 73.8588 81 73.0885 82.84C73.0431 82.9504 72.9154 83.0023 72.8051 82.9569C72.6947 82.9114 72.6428 82.7837 72.6883 82.6733C73.0453 81.8226 73.941 79.8116 74.5663 79.5107C74.8974 79.3505 75.8602 79.1644 76.0592 79.1276C76.1717 79.0626 76.3059 78.6903 76.373 78.5085C76.4206 78.3764 76.466 78.2509 76.5158 78.1578C77.074 77.0819 77.7988 76.4845 78.4869 76.4953C78.5777 76.5061 78.7249 76.439 78.8958 76.3698C79.6077 76.0819 80.9297 75.5429 83.7338 77.0257C84.9346 77.6599 85.5686 78.4262 85.6205 79.3029C85.7092 80.829 83.9739 82.1906 83.2253 82.7058C82.7882 83.0067 82.0612 83.1019 81.2174 83.2101C80.1183 83.353 78.8785 83.5154 78.1212 84.1734C78.0476 84.5458 77.6344 86.0177 75.6352 86.7602C75.6114 86.771 75.5854 86.7754 75.5594 86.7754Z" fill="#050506"/>
<path d="M81.3516 82.9504C82.957 83.3898 84.5733 81.5888 84.5733 81.5888C84.5733 81.5888 86.0965 80.2683 85.4647 78.9241C84.8351 77.5798 81.8968 76.1057 81.1871 76.2615C80.4774 76.4174 79.6466 75.4108 78.6167 76.5494C78.4241 76.4628 78.0888 76.6966 77.9633 76.7572C77.7534 76.859 77.6906 77.1447 77.6906 77.1447C77.6906 77.1447 77.4418 79.357 78.9845 81.0303C79.7396 81.8507 80.6246 82.7534 81.3516 82.9504Z" fill="#A45319"/>
<path d="M80.365 79.1275C80.365 79.1275 83.485 81.2337 85.0234 80.3981C86.5618 79.5626 85.2008 78.1945 85.2008 78.1945C85.2008 78.1945 82.4833 75.4952 79.6748 76.0428C79.6748 76.0428 78.9111 75.8956 78.567 76.374C78.223 76.8524 78.8202 78.201 80.365 79.1275Z" fill="#753E19"/>
<path d="M78.5172 76.9261C78.5172 76.9261 78.7919 76.7031 79.0321 76.8936C79.2723 77.0841 82.6 79.7618 83.8225 78.8959C83.8225 78.8959 84.1903 78.5517 83.9112 78.2573C83.6321 77.9629 82.2127 76.452 79.4518 76.3935C79.4518 76.3935 78.8525 76.2875 79.004 76.0645C79.1554 75.8415 81.648 75.5904 84.0518 77.123C86.4556 78.6556 85.6659 79.8397 85.5793 79.9176C85.4928 79.9956 85.1553 81.5498 81.8492 80.0973C78.7854 78.7509 78.5172 76.9261 78.5172 76.9261Z" fill="#B6803B"/>
<path d="M80.4106 78.5188C80.4957 78.4109 80.4507 78.2333 80.3101 78.1222C80.1694 78.011 79.9863 78.0084 79.9012 78.1163C79.816 78.2242 79.861 78.4017 80.0016 78.5129C80.1423 78.624 80.3254 78.6267 80.4106 78.5188Z" fill="#493223"/>
<path d="M80.4847 78.4249C80.5698 78.317 80.5249 78.1394 80.3842 78.0283C80.2435 77.9171 80.0604 77.9145 79.9753 78.0224C79.8901 78.1303 79.9351 78.3079 80.0758 78.419C80.2164 78.5302 80.3995 78.5328 80.4847 78.4249Z" fill="#6B4B32"/>
<path d="M82.1464 79.5558C82.2315 79.4479 82.1865 79.2703 82.0459 79.1592C81.9052 79.048 81.7221 79.0454 81.6369 79.1533C81.5518 79.2612 81.5968 79.4387 81.7374 79.5499C81.8781 79.661 82.0612 79.6637 82.1464 79.5558Z" fill="#493223"/>
<path d="M82.2219 79.4601C82.307 79.3522 82.262 79.1746 82.1214 79.0634C81.9807 78.9523 81.7976 78.9497 81.7124 79.0576C81.6273 79.1655 81.6723 79.343 81.8129 79.4542C81.9536 79.5653 82.1367 79.568 82.2219 79.4601Z" fill="#6B4B32"/>
<path d="M83.9217 80.041C84.0069 79.9331 83.9619 79.7555 83.8212 79.6444C83.6805 79.5332 83.4975 79.5306 83.4123 79.6385C83.3271 79.7464 83.3721 79.924 83.5128 80.0351C83.6534 80.1463 83.8365 80.1489 83.9217 80.041Z" fill="#493223"/>
<path d="M83.9972 79.9454C84.0824 79.8375 84.0374 79.6599 83.8968 79.5488C83.7561 79.4376 83.573 79.435 83.4878 79.5429C83.4027 79.6508 83.4477 79.8284 83.5883 79.9395C83.729 80.0507 83.9121 80.0533 83.9972 79.9454Z" fill="#6B4B32"/>
<path d="M84.5662 78.0384C84.6513 77.9305 84.6063 77.753 84.4657 77.6418C84.325 77.5307 84.1419 77.528 84.0567 77.6359C83.9716 77.7438 84.0166 77.9214 84.1572 78.0325C84.2979 78.1437 84.481 78.1463 84.5662 78.0384Z" fill="#493223"/>
<path d="M84.6417 77.9429C84.7269 77.835 84.6819 77.6574 84.5412 77.5462C84.4006 77.4351 84.2175 77.4325 84.1323 77.5404C84.0471 77.6483 84.0921 77.8258 84.2328 77.937C84.3735 78.0481 84.5566 78.0507 84.6417 77.9429Z" fill="#6B4B32"/>
<path d="M85.1182 79.3088C85.2034 79.2009 85.1584 79.0233 85.0177 78.9122C84.8771 78.8011 84.694 78.7984 84.6088 78.9063C84.5236 79.0142 84.5686 79.1918 84.7093 79.3029C84.85 79.4141 85.0331 79.4167 85.1182 79.3088Z" fill="#493223"/>
<path d="M85.1938 79.2131C85.279 79.1052 85.234 78.9276 85.0933 78.8165C84.9526 78.7053 84.7695 78.7027 84.6844 78.8106C84.5992 78.9185 84.6442 79.0961 84.7849 79.2072C84.9255 79.3184 85.1086 79.321 85.1938 79.2131Z" fill="#6B4B32"/>
<path d="M83.1862 77.1913C83.2596 77.0984 83.2202 76.945 83.0983 76.8487C82.9763 76.7523 82.8181 76.7496 82.7448 76.8424C82.6714 76.9353 82.7108 77.0887 82.8327 77.185C82.9546 77.2814 83.1129 77.2842 83.1862 77.1913Z" fill="#493223"/>
<path d="M83.2509 77.109C83.3242 77.0161 83.2848 76.8627 83.1629 76.7664C83.041 76.6701 82.8827 76.6673 82.8094 76.7602C82.7361 76.853 82.7755 77.0064 82.8974 77.1028C83.0193 77.1991 83.1776 77.2019 83.2509 77.109Z" fill="#6B4B32"/>
<path d="M81.5467 76.5442C81.5986 76.4785 81.5714 76.3706 81.4861 76.3032C81.4007 76.2358 81.2895 76.2343 81.2377 76.3C81.1858 76.3657 81.213 76.4736 81.2983 76.541C81.3837 76.6085 81.4949 76.6099 81.5467 76.5442Z" fill="#493223"/>
<path d="M81.5918 76.4861C81.6436 76.4204 81.6164 76.3125 81.5311 76.2451C81.4458 76.1777 81.3346 76.1762 81.2827 76.2419C81.2309 76.3076 81.258 76.4155 81.3434 76.4829C81.4287 76.5504 81.5399 76.5518 81.5918 76.4861Z" fill="#6B4B32"/>
<path d="M78.6622 76.7723L77.6929 77.1447C77.6929 77.1447 77.6626 76.9563 77.8227 76.6923C77.9828 76.4282 78.9002 75.8827 79.0041 76.0623" fill="#753E19"/>
<path d="M67.8286 88.4962C67.8286 88.4962 68.2376 94.7478 71.4658 96.1224L68.5729 99.3412C68.5729 99.3412 65.8467 95.4643 66.0544 90.4596C66.0523 90.4596 66.3249 88.6304 67.8286 88.4962Z" fill="white"/>
<path d="M68.573 99.5599C68.5687 99.5599 68.5644 99.5599 68.5601 99.5599C68.4951 99.5555 68.4346 99.5231 68.3956 99.4689C68.3675 99.43 65.6283 95.473 65.836 90.4531C65.836 90.4444 65.836 90.4379 65.8382 90.4293C65.9399 89.7366 66.4851 88.3988 67.8093 88.2819C67.8677 88.2776 67.9239 88.2949 67.9694 88.3338C68.0148 88.3728 68.0408 88.4269 68.0451 88.4832C68.0494 88.5438 68.4822 94.6179 71.5502 95.9254C71.6151 95.9535 71.6606 96.0098 71.6757 96.0769C71.6909 96.144 71.6714 96.2154 71.626 96.2674L68.7332 99.4863C68.692 99.5339 68.6336 99.5599 68.573 99.5599ZM66.2687 90.4812C66.1 94.672 68.0386 98.0922 68.599 98.9884L71.111 96.1938C69.8431 95.5249 68.8738 94.0681 68.229 91.8536C67.8331 90.492 67.6816 89.2495 67.634 88.7451C66.5414 88.9984 66.2925 90.3362 66.2687 90.4812Z" fill="#050506"/>
<path d="M45.2206 70.5532L42.9358 70.8519L41.5338 72.4213L43.3426 74.0427C44.0155 74.6466 45.0519 74.5795 45.6425 73.8955L47.2761 72.0079C47.2761 72.01 46.0125 70.7719 45.2206 70.5532Z" fill="#2CA961"/>
<path d="M48.6932 64.0786C48.6932 64.0786 49.4786 66.4186 44.4308 70.3345L47.8083 74.757L51.7916 68.6223C51.7916 68.6223 51.2182 65.3969 48.6932 64.0786Z" fill="white"/>
<path d="M47.8083 74.9734C47.7412 74.9734 47.6763 74.9431 47.6373 74.889L44.2599 70.4666C44.1885 70.3713 44.2058 70.2371 44.2988 70.1635C49.1238 66.4208 48.4942 64.1674 48.4877 64.1457C48.4617 64.0613 48.4877 63.9704 48.5547 63.9141C48.6218 63.8578 48.7149 63.847 48.7927 63.8881C51.3805 65.241 51.9798 68.4491 52.0036 68.5855C52.0123 68.6396 52.0015 68.6959 51.9712 68.7413L47.9879 74.876C47.9489 74.9345 47.884 74.9713 47.8148 74.9734C47.8148 74.9734 47.8104 74.9734 47.8083 74.9734ZM44.7337 70.3735L47.7953 74.3825L51.5644 68.5811C51.4605 68.1092 50.8504 65.7108 48.9572 64.4834C48.9485 65.3644 48.4531 67.4382 44.7337 70.3735Z" fill="#050506"/>
<path d="M44.0522 70.4038C44.0522 70.4038 33.95 68.8777 28.8027 63.3707C28.8027 63.3707 27.009 64.7215 26.4594 67.4923C26.4594 67.4923 29.7893 73.6897 40.5968 75.9713C42.3753 71.8541 44.0522 70.4038 44.0522 70.4038Z" fill="white"/>
<path d="M40.5968 76.19C40.5816 76.19 40.5665 76.1878 40.5513 76.1856C34.9237 74.9972 31.3471 72.733 29.3349 71.0445C27.1453 69.2046 26.3036 67.6633 26.2668 67.5984C26.243 67.5551 26.2344 67.5031 26.2452 67.4533C26.8034 64.6328 28.5949 63.2582 28.6707 63.1998C28.7594 63.1327 28.8827 63.1435 28.9584 63.2257C33.9933 68.6114 43.9808 70.1765 44.0824 70.1917C44.1668 70.2046 44.2339 70.2653 44.2577 70.3453C44.2815 70.4254 44.2555 70.5142 44.1906 70.5683C44.1733 70.5835 42.5246 72.0468 40.7915 76.0601C40.7612 76.1402 40.6812 76.19 40.5968 76.19ZM26.6888 67.4577C27.0847 68.1201 30.6223 73.5924 40.4691 75.7267C41.7933 72.707 43.0439 71.1528 43.6043 70.5488C41.657 70.1895 33.3615 68.4188 28.7875 63.6717C28.3634 64.0526 27.1366 65.3125 26.6888 67.4577Z" fill="#050506"/>
<path d="M45.6448 73.8954C45.6448 73.8954 47.9469 82.8376 48.3558 89.6412C48.7648 96.447 49.7103 103.235 49.2321 104.448C49.1283 104.71 47.618 107.5 46.547 107.591C45.3938 107.69 43.347 105 43.2842 104.831C42.7693 103.415 43.1652 87.5415 43.2929 85.7535C43.4703 83.2706 44.0307 73.7655 44.0848 74.0252C44.0848 74.0274 44.7555 73.3087 45.6448 73.8954Z" fill="#2CA961"/>
<path d="M32.8727 81.987L31.0249 85.0652C30.5467 85.8618 31.1201 86.8727 32.0483 86.8727H35.7417C36.6699 86.8727 37.2433 85.8596 36.7651 85.0652L34.9173 81.987C34.4565 81.2164 33.3357 81.2164 32.8727 81.987ZM34.6966 82.1277L36.5509 85.2146C36.8127 85.6518 36.499 86.2103 35.9883 86.2103H32.282C31.7714 86.2103 31.4555 85.654 31.7194 85.2146L33.5737 82.1277C33.8247 81.7013 34.4413 81.7013 34.6966 82.1277Z" fill="#D9AA6B"/>
<path d="M33.963 82.7706L32.7298 84.8227C32.5393 85.1387 32.7665 85.5414 33.1365 85.5414H35.6009C35.9688 85.5414 36.1981 85.1387 36.0077 84.8227L34.7744 82.7706C34.5905 82.4632 34.1469 82.4632 33.963 82.7706ZM34.7658 83.2576L35.5706 84.5976C35.6442 84.7209 35.5555 84.8768 35.4127 84.8768H33.8051C33.6623 84.8768 33.5736 84.7209 33.6471 84.5976L34.452 83.2576C34.5213 83.1386 34.6922 83.1386 34.7658 83.2576Z" fill="#D9AA6B"/>
<path d="M15.4441 92.5464C15.4441 92.5464 16.4156 92.2304 18.0773 93.6223Z" fill="white"/>
<path d="M18.0773 93.8366C18.0275 93.8366 17.9799 93.8193 17.9388 93.7868C16.4113 92.5075 15.5198 92.7499 15.5112 92.7521C15.3965 92.7889 15.2753 92.7261 15.2386 92.6136C15.2018 92.501 15.2645 92.3776 15.377 92.3408C15.4203 92.3278 16.4827 92.0031 18.2158 93.4556C18.3066 93.5314 18.3196 93.6699 18.2417 93.7608C18.2006 93.8106 18.1379 93.8366 18.0773 93.8366Z" fill="#050506"/>
<path d="M17.3612 76.7788C17.3612 76.7788 8.83202 89.9768 9.06353 95.1894C9.06353 95.1894 9.54819 98.0706 10.5197 98.6009C11.4912 99.1312 24.6008 107.357 28.0259 107.822C31.451 108.288 33.0348 107.071 32.9612 106.231C32.8876 105.391 32.4311 101.969 30.0943 101.638C27.7576 101.307 23.2117 99.4776 22.1818 98.261C21.1519 97.0445 22.2294 96.2089 19.4945 93.9901C19.4945 93.9901 22.5605 91.2258 26.1197 87.9853" fill="white"/>
<path d="M29.4516 108.141C28.9908 108.141 28.504 108.106 27.9955 108.039C25.0681 107.641 15.3489 101.766 11.6923 99.5556C11.0367 99.1595 10.565 98.8737 10.4157 98.7915C9.38367 98.2286 8.90118 95.5315 8.85141 95.2262C8.84925 95.2176 8.84925 95.2089 8.84925 95.2003C8.75188 92.9988 10.128 89.2085 12.9364 83.9288C15.02 80.0151 17.1599 76.6966 17.1815 76.662C17.2464 76.5624 17.3806 76.5321 17.4801 76.5971C17.5796 76.662 17.6099 76.7962 17.545 76.8958C17.4606 77.0278 9.06994 90.0722 9.27982 95.1656C9.41396 95.9492 9.90728 98.0187 10.6235 98.4105C10.7814 98.4971 11.2336 98.7698 11.9173 99.1833C15.5544 101.383 25.2174 107.223 28.0561 107.608C30.9835 108.006 32.1497 107.141 32.4375 106.868C32.6539 106.66 32.7642 106.441 32.7469 106.251C32.6863 105.571 32.2752 102.166 30.064 101.852C27.658 101.51 23.0905 99.6682 22.0151 98.3997C21.604 97.9148 21.5023 97.4883 21.3942 97.0381C21.2232 96.3237 21.0307 95.5163 19.356 94.1569C19.3062 94.1179 19.2781 94.0573 19.2759 93.9945C19.2738 93.9318 19.2997 93.8712 19.3473 93.8279C19.3776 93.7997 22.4522 91.0268 25.9703 87.8252C26.059 87.7451 26.1953 87.7516 26.2754 87.8404C26.3554 87.9291 26.349 88.0655 26.2602 88.1456C23.2354 90.8991 20.5395 93.3343 19.8212 93.9816C21.4309 95.3388 21.6343 96.1874 21.8139 96.9385C21.9134 97.3541 22 97.7135 22.344 98.1204C23.3458 99.3023 27.8354 101.099 30.1224 101.424C31.1977 101.575 32.0221 102.329 32.5738 103.662C33.0044 104.701 33.1385 105.792 33.1753 106.214C33.2034 106.539 33.0477 106.883 32.7339 107.182C32.0805 107.805 30.9013 108.141 29.4516 108.141Z" fill="#050506"/>
<path d="M31.031 101.811C31.031 101.811 32.0436 103.978 31.559 105.459C31.0743 106.937 29.2547 107.818 28.6402 107.82C28.6402 107.82 29.5057 108.039 29.8389 108.335C30.1721 108.632 33.0389 109.431 35.486 108.701C37.9331 107.972 36.1459 105.718 35.9902 105.117C35.8344 104.515 33.6101 102.558 32.8572 102.162C32.1042 101.766 31.3837 101.729 31.031 101.811Z" fill="#A45319"/>
<path d="M20.1499 95.224C20.1499 95.224 22.9583 97.577 22.8177 98.168C22.677 98.7589 20.5718 102.995 19.1697 103.599C17.7677 104.203 15.7641 102.261 15.8269 101.87C15.8875 101.48 19.4337 96.9254 20.1499 95.224Z" fill="white"/>
<path d="M18.5835 103.933C17.7505 103.933 16.9456 103.389 16.5843 103.11C16.197 102.809 15.5544 102.201 15.6128 101.837C15.6431 101.647 15.972 101.168 16.9867 99.7352C18.0599 98.2178 19.529 96.1418 19.9509 95.1396C19.9769 95.0768 20.0332 95.0292 20.1002 95.014C20.1673 94.9967 20.2365 95.014 20.2906 95.0595C22.9173 97.261 23.0818 98.0013 23.0298 98.2178C22.8719 98.8802 20.7493 103.155 19.2564 103.798C19.0335 103.894 18.8064 103.933 18.5835 103.933ZM16.0434 101.898C16.0975 102.084 16.6535 102.722 17.4238 103.149C17.8717 103.396 18.5251 103.64 19.0833 103.4C20.3664 102.848 22.4694 98.694 22.6079 98.116C22.6252 97.8216 21.4287 96.6008 20.2279 95.5725C19.687 96.6679 18.3953 98.4948 17.3394 99.9841C16.7444 100.826 16.1299 101.694 16.0434 101.898Z" fill="#050506"/>
<path d="M75.8081 57.0496L74.9743 56.8113L75.0458 56.5752C74.0864 55.7232 73.6814 54.1694 74.134 52.6113C74.5997 51.0167 75.8233 49.9007 77.1292 49.7247L77.1899 49.5251L77.937 49.7398C78.0237 49.7548 78.1081 49.772 78.1948 49.7956C79.8472 50.2677 80.707 52.2937 80.1157 54.3218C79.5245 56.3499 77.7075 57.6097 76.055 57.1354C75.9706 57.1118 75.8883 57.0817 75.8081 57.0496Z" fill="#C87A2C"/>
<path d="M79.3041 54.0858C79.8946 52.0587 79.0347 50.0324 77.3833 49.5599C75.7319 49.0874 73.9144 50.3477 73.3238 52.3748C72.7332 54.4019 73.5931 56.4282 75.2445 56.9007C76.8959 57.3732 78.7135 56.1129 79.3041 54.0858Z" fill="#F7B062"/>
<path d="M75.8623 56.3327C75.6869 56.3327 75.5136 56.3091 75.3447 56.2598C74.7166 56.0795 74.225 55.5859 73.9586 54.869C73.7031 54.1758 73.6901 53.3517 73.924 52.5491C74.1579 51.7464 74.6105 51.0553 75.1996 50.6046C75.8082 50.1389 76.4904 49.9801 77.1184 50.1604C77.7465 50.3407 78.2381 50.8343 78.5045 51.5511C78.76 52.2443 78.773 53.0684 78.5391 53.8711C78.3052 54.6738 77.8526 55.3648 77.2635 55.8155C76.8195 56.1567 76.3366 56.3327 75.8623 56.3327ZM76.6073 50.5188C76.2283 50.5188 75.8341 50.6647 75.4681 50.9459C74.9505 51.3408 74.552 51.9546 74.3441 52.6714C74.1362 53.3882 74.1449 54.1158 74.3679 54.7253C74.5845 55.309 74.9744 55.7082 75.466 55.8498C75.9598 55.9915 76.5034 55.8584 76.9993 55.4786C77.5169 55.0837 77.9154 54.4699 78.1233 53.7531C78.3312 53.0362 78.3226 52.3087 78.0995 51.6992C77.8829 51.1154 77.4931 50.7162 77.0015 50.5746C76.8737 50.536 76.7416 50.5188 76.6073 50.5188Z" fill="#C87A2C"/>
<path d="M75.6373 39.5371L75.7997 38.9405L75.9708 38.9898C76.5772 38.2988 77.6969 37.9919 78.8296 38.2988C79.9904 38.6121 80.8112 39.4706 80.952 40.3955L81.0971 40.4363L80.9498 40.9686C80.939 41.0308 80.9282 41.0909 80.9108 41.151C80.5881 42.3292 79.1306 42.9645 77.6558 42.5675C76.1831 42.1704 75.2496 40.8913 75.5745 39.7131C75.5918 39.653 75.6135 39.595 75.6373 39.5371Z" fill="#C87A2C"/>
<path d="M81.0675 40.5733C81.3911 39.3942 80.4587 38.1163 78.9849 37.7191C77.5111 37.322 76.054 37.9559 75.7304 39.135C75.4068 40.3141 76.3393 41.592 77.8131 41.9892C79.2869 42.3863 80.744 41.7524 81.0675 40.5733Z" fill="#F7B062"/>
<path d="M78.7559 41.6103C78.4917 41.6103 78.221 41.5738 77.9524 41.5008C77.3569 41.3399 76.8393 41.018 76.4993 40.5952C76.1419 40.1531 76.0163 39.6509 76.1441 39.183C76.4018 38.243 77.6341 37.7537 78.888 38.0906C80.142 38.4297 80.9541 39.4684 80.6964 40.4106C80.5686 40.8785 80.2026 41.2476 79.6677 41.4515C79.3862 41.5566 79.0765 41.6103 78.7559 41.6103ZM78.0802 38.4104C77.3352 38.4104 76.7115 38.7473 76.5621 39.2946C76.4711 39.6273 76.5686 39.9942 76.8371 40.3269C77.1208 40.6789 77.5583 40.9493 78.0651 41.0866C78.574 41.224 79.0873 41.2111 79.5139 41.048C79.9168 40.8956 80.1875 40.6274 80.2784 40.2947C80.4733 39.5822 79.7998 38.7795 78.7754 38.5027C78.5372 38.4404 78.3033 38.4104 78.0802 38.4104Z" fill="#C87A2C"/>
<path d="M69.5079 64.6641L69.5339 64.0761L69.7028 64.0846C70.1208 63.3163 71.0997 62.7991 72.2172 62.8485C73.3628 62.9 74.3071 63.5288 74.6341 64.3615L74.7771 64.3701L74.7532 64.8959C74.7576 64.956 74.7597 65.0139 74.7554 65.074C74.7034 66.2394 73.4798 67.13 72.0266 67.0656C70.5712 67.0013 69.4342 66.0055 69.4862 64.8401C69.4905 64.7821 69.4992 64.7221 69.5079 64.6641Z" fill="#C87A2C"/>
<path d="M74.7814 64.5001C74.8338 63.3361 73.6965 62.3404 72.2411 62.276C70.7857 62.2116 69.5634 63.103 69.511 64.267C69.4585 65.4309 70.5958 66.4267 72.0512 66.4911C73.5066 66.5555 74.7289 65.6641 74.7814 64.5001Z" fill="#F7B062"/>
<path d="M72.2107 66.027C72.1652 66.027 72.1197 66.027 72.0742 66.0248C70.8289 65.969 69.85 65.1642 69.8934 64.2306C69.915 63.7649 70.1771 63.3421 70.634 63.0417C71.0693 62.7541 71.6346 62.6082 72.2258 62.6361C72.8171 62.6618 73.3672 62.855 73.7765 63.1812C74.2053 63.5224 74.4284 63.9645 74.4089 64.4302C74.3872 64.896 74.1252 65.3187 73.6682 65.6192C73.2654 65.8832 72.7521 66.027 72.2107 66.027ZM72.0894 63.061C71.6346 63.061 71.2058 63.179 70.8744 63.3979C70.5344 63.6211 70.3395 63.9238 70.3265 64.2478C70.294 64.9453 71.0888 65.5484 72.0937 65.5935C72.5918 65.6128 73.0661 65.4969 73.4278 65.2587C73.7678 65.0355 73.9627 64.7328 73.9757 64.4088C73.9909 64.0847 73.8241 63.7649 73.5058 63.5138C73.1679 63.2456 72.7066 63.0846 72.2085 63.0631C72.1674 63.0631 72.1284 63.061 72.0894 63.061Z" fill="#C87A2C"/>
<path d="M71.992 63.1038C71.7364 63.194 71.4744 63.3506 71.3639 63.6296C71.3401 63.6919 71.2664 63.7198 71.2101 63.6833C71.1517 63.6446 71.208 63.4579 71.0044 63.4279C70.6774 63.3828 70.738 63.4837 70.5929 63.4708C70.4976 63.4622 70.4651 63.3356 70.5453 63.2819C70.7748 63.1274 71.1971 63.1317 71.1387 62.6016C71.13 62.5244 71.2556 62.505 71.3119 62.5608C71.4289 62.6789 71.6325 62.8205 71.979 62.9064C72.0808 62.9343 72.0894 63.0695 71.992 63.1038Z" fill="#F7DA62"/>
<path d="M76.75 48.819C76.8344 49.6303 77.1181 50.5123 77.8696 51.0295C78.0386 51.1454 78.0689 51.3815 77.9173 51.5189C77.757 51.6627 77.2416 51.3622 77.012 51.9374C76.6438 52.8624 76.9925 52.7572 76.8496 53.1757C76.7565 53.4504 76.3558 53.4547 76.254 53.1821C75.9551 52.3988 76.2713 51.169 74.6492 50.9587C74.4088 50.9287 74.4456 50.5467 74.6535 50.4222C75.0867 50.1668 76.2215 50.6947 76.1609 48.7138C76.1522 48.4069 76.7196 48.5143 76.75 48.819Z" fill="#F7DA62"/>
<path d="M81.0104 38.29C81.1035 39.1957 81.4219 40.1808 82.2622 40.7603C82.4506 40.8912 82.4852 41.153 82.3141 41.3054C82.1366 41.4664 81.5583 41.1294 81.3027 41.7733C80.8913 42.8056 81.2811 42.6897 81.1208 43.1575C81.0169 43.4644 80.5707 43.4687 80.4538 43.1661C80.1203 42.2905 80.4733 40.9169 78.6606 40.6809C78.3942 40.6465 78.4332 40.2194 78.6649 40.0821C79.15 39.7966 80.417 40.3868 80.3498 38.1742C80.3412 37.8308 80.9757 37.9488 81.0104 38.29Z" fill="#F7DA62"/>
<path d="M80.4405 61.8676C80.8639 61.8676 81.2072 61.5275 81.2072 61.1079C81.2072 60.6883 80.8639 60.3481 80.4405 60.3481C80.0171 60.3481 79.6738 60.6883 79.6738 61.1079C79.6738 61.5275 80.0171 61.8676 80.4405 61.8676Z" fill="#F7DA62"/>
<path d="M67.7667 56.1655C68.1901 56.1655 68.5333 55.8253 68.5333 55.4057C68.5333 54.9861 68.1901 54.646 67.7667 54.646C67.3432 54.646 67 54.9861 67 55.4057C67 55.8253 67.3432 56.1655 67.7667 56.1655Z" fill="#F7DA62"/>
<path d="M70.7359 48.5058C70.9476 48.5058 71.1192 48.3358 71.1192 48.126C71.1192 47.9162 70.9476 47.7461 70.7359 47.7461C70.5242 47.7461 70.3525 47.9162 70.3525 48.126C70.3525 48.3358 70.5242 48.5058 70.7359 48.5058Z" fill="#F7DA62"/>
</g>
<circle cx="88" cy="18" r="18" fill="#FFCF87"/>
<path d="M88 17.5C93.5234 17.5 98 15.6328 98 13.332C98 11.0312 93.5234 9.16406 88 9.16406C82.4766 9.16406 78 11.0312 78 13.332C78 15.6328 82.4766 17.5 88 17.5ZM88 24.1641C84.1836 24.1641 80.8086 23.2461 78.6797 21.8281C78.2461 22.2969 78 22.8008 78 23.332C78 25.6328 82.4766 27.5 88 27.5C93.5234 27.5 98 25.6328 98 23.332C98 22.8008 97.7539 22.2969 97.3203 21.832C95.1914 23.2461 91.8164 24.1641 88 24.1641V24.1641ZM88 19.1641C84.1836 19.1641 80.8086 18.2461 78.6797 16.8281C78.2461 17.2969 78 17.8008 78 18.332C78 20.6328 82.4766 22.5 88 22.5C93.5234 22.5 98 20.6328 98 18.332C98 17.8008 97.7539 17.2969 97.3203 16.832C95.1914 18.2461 91.8164 19.1641 88 19.1641V19.1641Z" fill="white"/>
<defs>
<clipPath id="clip0">
<rect width="100.957" height="81" fill="white" transform="translate(0 28)"/>
</clipPath>
</defs>
</svg>
