<svg width="104" height="104" viewBox="0 0 104 104" fill="none" xmlns="http://www.w3.org/2000/svg">
<path d="M35.9395 28.8437C35.4991 28.8123 35.0587 28.7606 34.6184 28.7516C33.8578 28.7358 33.0961 28.7471 32.2772 28.7471C32.2772 29.9182 32.2772 31.032 32.2772 32.184C31.0706 32.184 29.9213 32.184 28.7148 32.184C28.7148 31.0342 28.7148 29.9024 28.7148 28.7325C26.2938 28.7325 23.9301 28.7325 21.5001 28.7325C21.5001 29.8744 21.5001 31.005 21.5001 32.2267C20.3599 32.2267 19.2847 32.2379 18.2096 32.2064C18.1197 32.2042 17.967 31.9232 17.9625 31.7681C17.9377 30.9083 17.9333 30.0474 17.9568 29.1877C17.9681 28.792 17.8288 28.6673 17.4412 28.6752C16.4189 28.6954 15.3966 28.6819 14.3304 28.6819C14.3304 31.0792 14.3304 33.4101 14.3304 35.8557C13.1003 35.8557 11.9128 35.8557 10.7254 35.8557L10.7377 35.8456C10.7388 38.2429 10.74 40.6391 10.7411 43.0363C14.3293 43.0363 17.9186 43.0363 21.5372 43.0363C21.5372 41.7753 21.5372 40.6008 21.5372 39.4264C20.3677 39.4264 19.1982 39.4264 18.0186 39.4264C18.0186 38.235 18.0186 37.0988 18.0186 35.9344C19.1758 35.9344 20.3026 35.9344 21.5181 35.9344C21.5181 37.1359 21.5181 38.2901 21.5181 39.4455C22.6707 39.4455 23.8223 39.4455 24.9962 39.4455C24.9962 41.8596 24.9962 44.1906 24.9962 46.598C22.628 46.598 20.2868 46.598 17.8861 46.598C17.8861 47.8219 17.8861 48.9716 17.8861 50.1517C16.6784 50.1517 15.5302 50.1517 14.3102 50.1517C14.3102 48.9469 14.3102 47.7814 14.3102 46.5519C13.0902 46.5519 11.9409 46.5519 10.7591 46.5519C10.7591 45.3302 10.7591 44.1748 10.7591 43.0195C8.3729 43.0195 5.98674 43.0195 3.53992 43.0195C3.53992 41.7877 3.53992 40.6132 3.53992 39.4376L3.55453 39.4522C2.3828 39.4522 1.21107 39.4522 0.00900404 39.4522C0.00900404 46.6396 0.00900404 53.7595 0.00900404 60.9502C2.35359 60.9502 4.69818 60.9502 7.09669 60.9502C7.11466 61.1761 7.13826 61.3357 7.13826 61.4941C7.13826 65.8897 7.12702 70.2853 7.14387 74.6808C7.14612 75.2079 7.01918 75.3844 6.4642 75.3743C4.52068 75.3394 2.57602 75.3608 0.631372 75.3608C0.431403 75.3608 0.23256 75.3608 0.00338142 75.3608C0.00338142 76.5645 0.00338142 77.6996 0.00338142 78.9168C1.14815 78.9168 2.29405 78.9168 3.4714 78.9168C3.4714 80.1317 3.4714 81.2635 3.4714 82.4616C2.31764 82.4616 1.18747 82.4616 0.019111 82.4616C0.019111 84.8881 0.019111 87.2494 0.019111 89.6737C1.01222 89.6737 1.9806 89.695 2.94675 89.6647C3.4141 89.65 3.5579 89.7995 3.5433 90.2682C3.51409 91.2583 3.54441 92.2496 3.55115 93.2409L3.53992 93.2308C5.89238 93.2308 8.24483 93.2308 10.6714 93.2308C10.6714 95.6472 10.6714 98.0287 10.6714 100.486C13.107 100.486 15.4696 100.486 17.8906 100.486C17.8906 101.69 17.8906 102.822 17.8906 103.989C29.873 103.989 41.7982 103.989 53.7919 103.989C53.7919 102.841 53.7919 101.709 53.7919 100.499C57.4014 100.499 60.9425 100.499 64.5004 100.499C64.5004 96.8711 64.5004 93.323 64.5004 89.7085C63.3871 89.7085 62.3074 89.6939 61.229 89.7332C61.1335 89.7366 60.9751 90.0906 60.9739 90.2839C60.9571 92.2305 60.9672 94.176 60.9694 96.1226C60.9694 96.3249 60.9694 96.5283 60.9694 96.7744C57.3778 96.7744 53.8379 96.7744 50.2542 96.7744C50.2542 95.6348 50.2542 94.5042 50.2542 93.3016C51.4113 93.3016 52.5595 93.3016 53.7874 93.3016C53.7874 90.8875 53.7874 88.543 53.7874 86.1379C54.9984 86.1379 56.1308 86.1379 57.3161 86.1379C57.3161 83.7147 57.3161 81.3534 57.3161 78.9325C56.1848 78.9325 55.0524 78.9325 53.8525 78.9325C53.8525 77.7097 53.8525 76.5443 53.8525 75.3158C52.6156 75.3158 51.4462 75.3158 50.2463 75.3158C50.2463 74.1178 50.2463 72.986 50.2463 71.8025C51.4023 71.8025 52.5359 71.8025 53.7233 71.8025C53.7233 70.5898 53.7233 69.4255 53.7233 68.2195C48.9948 68.2195 44.2574 68.2195 39.4603 68.2195C39.4603 69.4187 39.4603 70.609 39.4603 71.7992C41.8251 71.7992 44.19 71.7992 46.566 71.7992C46.566 72.9849 46.566 74.1166 46.566 75.2507C44.1855 75.2507 41.8442 75.2507 39.4772 75.2507C39.4772 74.0593 39.4772 72.9208 39.4772 71.7823C38.3066 71.7823 37.136 71.7823 35.9013 71.7823C35.9013 70.5584 35.9013 69.3918 35.9013 68.1802C34.6543 68.1802 33.4702 68.1802 32.2861 68.1802C32.2861 69.3311 32.2861 70.4808 32.2861 71.6362C31.0346 71.6362 29.8887 71.6362 28.6923 71.6362C28.6923 70.4617 28.6923 69.3255 28.6923 68.1903C27.5037 68.1903 26.3151 68.1903 25.0726 68.1903C25.0726 66.9529 25.0726 65.7998 25.0726 64.6276C22.6573 64.6276 20.2969 64.6276 17.8973 64.6276C17.8973 65.8492 17.8973 67.0248 17.8973 68.2016C19.0679 68.2016 20.2385 68.2016 21.4237 68.2016C21.4237 69.385 21.4237 70.5134 21.4237 71.6339C20.2464 71.6339 19.1173 71.6339 17.9175 71.6339C17.9175 70.4561 17.9175 69.3187 17.9175 68.1825C15.5359 68.1825 13.1531 68.1825 10.7826 68.1825C10.7826 65.7447 10.7826 63.3958 10.7826 60.9771C14.363 60.9771 17.904 60.9771 21.5125 60.9771C21.5125 59.7588 21.5125 58.6102 21.5125 57.4245C22.7258 57.4245 23.8717 57.4245 25.0872 57.4245C25.0872 58.4821 25.0973 59.5048 25.0816 60.5276C25.076 60.8636 25.1827 60.9974 25.5287 60.9884C26.2196 60.9704 26.9117 60.9839 27.6037 60.9839C27.9475 60.9839 28.2912 60.9839 28.6732 60.9839C28.6732 63.4654 28.6732 65.838 28.6732 68.2105C29.8854 68.2072 31.0964 68.2038 32.3075 68.2016C32.3075 65.8279 32.3075 63.4531 32.3075 60.9828C32.9872 60.9828 33.6511 60.9816 34.3139 60.9828C35.8474 60.9861 35.8474 60.9861 35.8474 59.4801C35.8474 53.1919 35.8474 46.9037 35.8474 40.6155C35.8474 39.4264 35.8474 39.4264 34.6835 39.4264C33.9027 39.4264 33.1231 39.4264 32.3142 39.4264C32.3142 38.2238 32.3142 37.0887 32.3142 35.8895C35.8609 35.8895 39.4064 35.8895 42.9924 35.8895C42.9924 34.6599 42.9924 33.4944 42.9924 32.2739C40.6399 32.2739 38.3088 32.2739 35.9373 32.2739C35.9373 31.0938 35.9373 29.9654 35.9361 28.837C35.9317 28.8404 35.9395 28.8437 35.9395 28.8437ZM7.13039 50.2529C8.31785 50.2529 9.50532 50.2529 10.7006 50.2529C10.7006 53.8426 10.7006 57.3526 10.7006 60.8794C9.50981 60.8794 8.34819 60.8794 7.14949 60.8794C7.14949 57.2997 7.14949 53.7662 7.14949 50.2327C5.9845 50.2327 4.82064 50.2327 3.64553 50.2327C3.64553 48.9964 3.64553 47.8669 3.64553 46.7081C4.80715 46.7081 5.93282 46.7081 7.13039 46.7081C7.13039 47.9152 7.13039 49.084 7.13039 50.2529ZM46.6132 78.9606C46.6132 81.3692 46.6132 83.7316 46.6132 86.1502C47.8321 86.1502 48.9634 86.1502 50.1273 86.1502C50.1273 88.5351 50.1273 90.8627 50.1273 93.2038C47.749 93.2038 45.4055 93.2038 43.0081 93.2038C43.0081 92.0091 43.0081 90.8571 43.0081 89.6411C41.806 89.6411 40.6568 89.6411 39.4648 89.6411C39.4648 88.588 39.4783 87.5989 39.4513 86.611C39.4469 86.4447 39.2761 86.1435 39.1739 86.1401C38.0785 86.1053 36.9821 86.1188 35.8283 86.1188C35.8283 87.3258 35.8283 88.4598 35.8283 89.6219C34.6217 89.6219 33.4758 89.6219 32.3232 89.6219C32.3232 87.2393 32.3232 84.8937 32.3232 82.4863C33.5107 82.4863 34.6611 82.4863 35.8362 82.4863C35.8362 81.2736 35.8362 80.1228 35.8362 78.9033C35.6059 78.9033 35.4059 78.9033 35.2048 78.9033C34.3813 78.9044 33.5579 78.9191 32.7355 78.8932C32.5906 78.8887 32.33 78.7111 32.3277 78.6077C32.2974 77.5479 32.3086 76.4858 32.3086 75.3956C34.7071 75.3956 37.036 75.3956 39.4446 75.3956C39.4446 76.5881 39.4446 77.7513 39.4446 78.9595C41.86 78.9606 44.1933 78.9606 46.6132 78.9606ZM25.1355 50.2484C25.1355 49.0031 25.1355 47.8388 25.1355 46.616C26.3634 46.616 27.5149 46.616 28.7159 46.616C28.7159 44.2063 28.7159 41.8574 28.7159 39.4983C29.9146 39.4983 31.0594 39.4983 32.2075 39.4983C32.2075 44.2827 32.2075 49.0211 32.2075 53.819C28.6125 53.819 25.0693 53.819 21.4709 53.819C21.4709 55.0126 21.4709 56.1455 21.4709 57.2975C19.0915 57.2975 16.7694 57.2975 14.445 57.2975C14.445 56.1174 14.445 54.9856 14.445 53.7932C15.6123 53.7932 16.7447 53.7932 17.9467 53.7932C17.9467 52.5861 17.9467 51.4375 17.9467 50.2473C20.3509 50.2484 22.6831 50.2484 25.1355 50.2484ZM28.635 100.414C25.0434 100.414 21.517 100.414 17.9186 100.414C17.9186 99.2133 17.9186 98.0467 17.9186 96.8329C16.7132 96.8329 15.5797 96.8329 14.4158 96.8329C14.4158 95.6359 14.4158 94.4896 14.4158 93.269C15.6224 93.269 16.7874 93.269 18.0096 93.269C18.0096 92.0653 18.0096 90.9347 18.0096 89.8029C20.3913 89.8029 22.7134 89.8029 25.1041 89.8029C25.1041 90.9819 25.1041 92.1125 25.1041 93.3061C26.3207 93.3061 27.4689 93.3061 28.635 93.3061C28.635 95.7022 28.635 98.0321 28.635 100.414ZM28.58 86.0008C25.0221 86.0008 21.5361 86.0008 18.0265 86.0008C18.0265 82.4548 18.0265 78.9483 18.0265 75.4271C21.5675 75.4271 25.0681 75.4271 28.58 75.4271C28.58 78.9696 28.58 82.4638 28.58 86.0008ZM10.8051 82.5032C10.8051 81.2759 10.8051 80.1306 10.8051 78.9775C11.9915 78.9775 13.107 78.9775 14.2484 78.9775C14.2484 81.3366 14.2484 83.6642 14.2484 86.0176C11.8982 86.0176 9.58957 86.0176 7.24386 86.0176C7.24386 84.8375 7.24386 83.6923 7.24386 82.5032C8.42121 82.5032 9.55699 82.5032 10.8051 82.5032ZM32.3153 93.3567C33.5017 93.3567 34.6487 93.3567 35.8463 93.3567C35.8463 94.5503 35.8463 95.7034 35.8463 96.9318C37.0416 96.9318 38.1886 96.9318 39.3536 96.9318C39.3536 98.1209 39.3536 99.2335 39.3536 100.38C36.9955 100.38 34.6712 100.38 32.3153 100.38C32.3153 98.0377 32.3153 95.7259 32.3153 93.3567ZM35.9092 93.224C35.9092 92.0383 35.9092 90.9099 35.9092 89.7658C37.0877 89.7658 38.2302 89.7658 39.3851 89.7658C39.3851 90.9425 39.3851 92.072 39.3851 93.224C38.2178 93.224 37.0854 93.224 35.9092 93.224ZM7.1641 75.4046C8.35718 75.4046 9.50531 75.4046 10.6894 75.4046C10.6894 76.5566 10.6894 77.685 10.6894 78.8348C9.50306 78.8348 8.34257 78.8348 7.1641 78.8348C7.1641 77.6839 7.1641 76.5836 7.1641 75.4046ZM10.7883 75.2776C10.7883 74.0908 10.7883 72.9781 10.7883 71.8306C11.951 71.8306 13.0789 71.8306 14.2282 71.8306C14.2282 72.9961 14.2282 74.1256 14.2282 75.2776C13.0688 75.2776 11.9533 75.2776 10.7883 75.2776ZM28.7406 60.9007C28.7406 59.7262 28.7406 58.6012 28.7406 57.4852C29.9292 57.4852 31.074 57.4852 32.2232 57.4852C32.2232 58.6495 32.2232 59.7622 32.2232 60.9007C31.0537 60.9007 29.9191 60.9007 28.7406 60.9007ZM28.7429 93.2173C28.7429 92.0462 28.7429 90.9043 28.7429 89.7535C29.918 89.7535 31.0481 89.7535 32.1929 89.7535C32.1929 90.929 32.1929 92.0709 32.1929 93.2173C31.0178 93.2173 29.8876 93.2173 28.7429 93.2173ZM46.6761 78.8752C46.6761 77.6906 46.6761 76.5634 46.6761 75.4102C47.849 75.4102 48.9881 75.4102 50.125 75.4102C50.125 76.5903 50.125 77.721 50.125 78.8752C48.9735 78.8752 47.8591 78.8752 46.6761 78.8752Z" fill="black"/>
<path d="M78.8134 43.0033C78.837 43.8394 78.8629 44.6767 78.882 45.5129C78.8898 45.8636 78.8831 46.2154 78.8831 46.6256C80.0852 46.6256 81.2333 46.6256 82.4163 46.6256C82.4163 47.836 82.4163 48.9846 82.4163 50.1715C80.0593 50.1715 77.7316 50.1715 75.3443 50.1715C75.3443 49.0161 75.3443 47.8641 75.3443 46.6694C72.9402 46.6694 70.5945 46.6694 68.2094 46.6694C68.2094 49.0195 68.2094 51.3662 68.2094 53.7556C69.3621 53.7556 70.508 53.7556 71.7145 53.7556C71.7145 52.5755 71.7145 51.4246 71.7145 50.24C72.9233 50.24 74.0726 50.24 75.2769 50.24C75.2769 51.41 75.2769 52.5609 75.2769 53.7691C77.6777 53.7691 80.0245 53.7691 82.4196 53.7691C82.4196 54.9705 82.4196 56.1169 82.4196 57.333C78.882 57.333 75.3409 57.333 71.7224 57.333C71.7224 58.4985 71.7111 59.5954 71.7415 60.6912C71.7437 60.7878 72.0145 60.9542 72.165 60.9587C73.0244 60.9845 73.8861 60.9946 74.7455 60.962C75.1814 60.9452 75.2881 61.1081 75.2791 61.5116C75.2567 62.5018 75.2724 63.4919 75.2724 64.5551C76.4745 64.5551 77.6406 64.5551 78.8101 64.5551C78.8101 65.8319 78.8101 67.0356 78.8112 68.237C80.0155 68.2359 81.2176 68.2359 82.4331 68.2359C82.4331 69.3812 82.4331 70.5073 82.4331 71.6391C81.2546 71.6391 80.111 71.6391 78.9089 71.6391C78.9089 71.0648 78.9202 70.5275 78.9056 69.9914C78.8898 69.4036 78.8505 68.817 78.8224 68.2292C77.6698 68.2292 76.516 68.2292 75.3162 68.2292C75.3162 69.3845 75.3162 70.5197 75.3162 71.6953C74.1198 71.6953 72.9705 71.6953 71.7527 71.6953C71.7527 70.5534 71.7527 69.4048 71.7527 68.2179C70.5372 68.2179 69.3901 68.2179 68.2083 68.2179C68.2083 69.3879 68.2083 70.5399 68.2083 71.7481C69.3452 71.7481 70.4787 71.7481 71.692 71.7481C71.692 75.3412 71.692 78.8815 71.692 82.4532C72.9244 82.4532 74.076 82.4532 75.2938 82.4532C75.2938 80.1167 75.2938 77.7902 75.2938 75.3963C81.3153 75.3963 87.2706 75.3963 93.2955 75.3963C93.2955 74.1622 93.2955 72.9934 93.2955 71.8009C94.4976 71.8009 95.63 71.8009 96.8242 71.8009C96.8242 72.9585 96.8242 74.0903 96.8242 75.3041C97.9791 75.3041 99.0744 75.3109 100.169 75.2906C100.253 75.2895 100.402 75.0984 100.405 74.9928C100.423 73.9318 100.416 72.8698 100.416 71.7346C99.207 71.7346 98.0577 71.7346 96.8894 71.7346C96.8894 69.2946 96.8894 66.9299 96.8894 64.5023C97.9139 64.5023 98.9003 64.5068 99.8867 64.4989C100.084 64.4978 100.282 64.4484 100.48 64.4214L100.47 64.4326C100.47 62.1197 100.47 59.8078 100.47 57.4128C101.631 57.4128 102.793 57.4128 103.986 57.4128C103.986 56.1832 103.986 55.0335 103.986 53.8242C102.799 53.8242 101.613 53.8242 100.428 53.8242C100.428 54.9784 100.428 56.1326 100.428 57.3566C97.9892 57.3566 95.6244 57.3566 93.2023 57.3566C93.2023 58.5782 93.2023 59.7314 93.2023 60.8912C92.0103 60.8912 90.879 60.8912 89.6905 60.8912C89.6905 60.6518 89.6905 60.4495 89.6905 60.2472C89.6905 58.2827 89.6781 56.317 89.6983 54.3524C89.7028 53.8961 89.5792 53.7331 89.1029 53.7511C88.1379 53.7871 87.1706 53.7623 86.1944 53.7623C86.1944 52.5407 86.1944 51.3954 86.1944 50.1883C87.3897 50.1883 88.5378 50.1883 89.75 50.1883C89.75 48.9779 89.75 47.8293 89.75 46.6795C90.9476 46.6795 92.0789 46.6795 93.2955 46.6795C93.2955 47.881 93.2955 49.0453 93.2955 50.267C94.5156 50.267 95.6491 50.267 96.8523 50.267C96.8523 51.473 96.8523 52.6216 96.8523 53.8455C98.0993 53.8455 99.2733 53.8455 100.448 53.8455C100.448 52.6733 100.448 51.5011 100.448 50.2681C101.63 50.2681 102.778 50.2681 103.973 50.2681C103.973 49.0453 103.973 47.881 103.973 46.6436C102.821 46.6436 101.659 46.6436 100.406 46.6436C100.406 45.4017 100.406 44.2317 100.407 43.0617C98.0611 43.0606 95.7143 43.0606 93.3764 43.0606C93.3764 41.8108 93.3764 40.6476 93.3764 39.5046C95.7513 39.5046 98.0735 39.5046 100.39 39.5046C100.39 40.7307 100.39 41.9063 100.39 43.0808C101.581 43.0808 102.77 43.0808 103.991 43.0808C103.991 41.8288 103.991 40.6768 103.991 39.4596C102.836 39.4596 101.688 39.4596 100.456 39.4596C100.456 38.2346 100.456 37.0713 100.456 35.8429C99.4452 35.8429 98.515 35.8126 97.587 35.8541C97.0399 35.8789 96.8422 35.7507 96.8545 35.1517C96.8972 33.2253 96.8703 31.2967 96.8691 29.3704C96.8691 29.1692 96.8691 28.968 96.8691 28.7005C96.5827 28.7005 96.3625 28.7005 96.1434 28.7005C94.1976 28.7005 92.253 28.7207 90.3072 28.6882C89.7702 28.6792 89.6568 28.8646 89.6601 29.3602C89.6803 32.4667 89.6714 35.5732 89.6725 38.6796C89.6725 38.901 89.6725 39.1236 89.6725 39.3899C87.2762 39.3899 84.9305 39.3899 82.5151 39.3899C82.5151 38.2334 82.5151 37.0814 82.5151 35.8642C81.3176 35.8642 80.1863 35.8642 79.0078 35.8642C79.0078 34.6516 79.0078 33.5074 79.0078 32.297C80.147 32.297 81.2782 32.297 82.4399 32.297C82.4399 31.0798 82.4399 29.9267 82.4399 28.7028C80.1155 28.7028 77.79 28.7028 75.4016 28.7028C75.387 28.4398 75.3657 28.2431 75.3657 28.0464C75.3634 26.0436 75.3533 24.042 75.3713 22.0392C75.3746 21.6244 75.2578 21.4817 74.8331 21.493C73.8254 21.521 72.8166 21.5019 71.737 21.5019C71.737 22.6888 71.737 23.8374 71.737 25.0242C70.5349 25.0242 69.4036 25.0242 68.2094 25.0242C68.2094 23.8745 68.2094 22.7259 68.2094 21.5053C66.986 21.5053 65.821 21.5053 64.601 21.5053C64.601 20.2836 64.601 19.1339 64.601 17.9381C60.9824 17.9381 57.4212 17.9381 53.7801 17.9381C53.7801 19.0901 53.7801 20.2567 53.7801 21.4727C52.568 21.4727 51.4356 21.4727 50.2605 21.4727C50.2605 22.6888 50.2605 23.852 50.2605 25.0917C51.2592 25.0917 52.2276 25.1186 53.1926 25.0804C53.6701 25.0613 53.797 25.2119 53.779 25.6772C53.7431 26.6438 53.7678 27.6126 53.7678 28.6162C51.3726 28.6162 49.0438 28.6162 46.6397 28.6162C46.6397 26.2583 46.6397 23.9138 46.6397 21.5357C45.4151 21.5357 44.2659 21.5357 43.0514 21.5357C43.0514 22.6809 43.0514 23.8127 43.0514 24.9872C41.8404 24.9872 40.6922 24.9872 39.4846 24.9872C39.4846 22.6405 39.4846 20.3117 39.4846 17.9246C38.2769 17.9246 37.1265 17.9246 35.9008 17.9246C35.9008 15.5048 35.9008 13.1424 35.9008 10.7271C34.6741 10.7271 33.5214 10.7271 32.3261 10.7271C32.3261 8.3467 32.3261 6.02023 32.3261 3.65105C33.4518 3.65105 34.5808 3.65105 35.793 3.65105C35.793 4.79069 35.793 5.93706 35.793 7.1284C38.2252 7.1284 40.5765 7.1284 42.9795 7.1284C42.9795 8.31748 42.9795 9.46161 42.9795 10.6754C41.819 10.6754 40.6709 10.6754 39.4891 10.6754C39.4891 11.9117 39.4891 13.0794 39.4891 14.2764C43.0571 14.2764 46.6026 14.2764 50.2402 14.2764C50.2402 11.8769 50.2402 9.49083 50.2402 7.10367L50.247 7.11041C47.8743 7.11041 45.5016 7.11041 43.0593 7.11041C43.0593 4.73224 43.0593 2.38666 43.0593 0.0107422C38.2465 0.0107422 33.5046 0.0107422 28.7266 0.0107422C28.7266 3.57125 28.7266 7.1003 28.7266 10.6968C29.8703 10.6968 31.0173 10.6968 32.2126 10.6968C32.2126 13.1087 32.2126 15.4531 32.2126 17.8706C31.051 17.8706 29.9029 17.8706 28.7221 17.8706C28.7221 20.2915 28.7221 22.6382 28.7221 25.0254C29.8905 25.0254 31.0409 25.0254 32.2564 25.0254C32.2564 23.8992 32.2564 22.7697 32.2564 21.5941C33.4675 21.5941 34.6156 21.5941 35.8345 21.5941C35.8447 21.7863 35.8626 21.9818 35.8626 22.1774C35.8649 24.1802 35.8615 26.1819 35.8671 28.1846C35.8683 28.4049 35.9132 28.6252 35.9379 28.8466C35.939 28.8477 35.9312 28.8433 35.9323 28.8444C36.3468 28.7871 36.7614 28.6803 37.1759 28.6792C40.1114 28.6713 43.0469 28.6994 45.9813 28.6769C46.5161 28.6724 46.6397 28.8365 46.6329 29.34C46.6071 31.2664 46.6217 33.1939 46.6217 35.1214C46.6217 35.3248 46.6217 35.5282 46.6217 35.8182C47.7586 35.8182 48.8539 35.8294 49.9481 35.7979C50.0391 35.7957 50.1919 35.5125 50.1964 35.3574C50.2189 34.3683 50.2077 33.3782 50.2077 32.3397C51.3805 32.3397 52.5096 32.3397 53.715 32.3397C53.715 33.4658 53.715 34.6111 53.715 35.8238C54.9069 35.8238 56.0225 35.835 57.1381 35.8036C57.2279 35.8013 57.3819 35.5136 57.3852 35.3562C57.4066 34.2526 57.3965 33.1489 57.3965 32.0452C57.3965 30.0054 57.3965 27.9666 57.3965 25.9267C57.3965 25.6705 57.3965 25.4131 57.3965 25.0894C58.3974 25.0894 59.3276 25.0883 60.2578 25.0894C60.9757 25.0906 60.9768 25.0917 60.9768 24.3499C60.9779 23.4171 60.9768 22.4831 60.9768 21.5121C62.1643 21.5121 63.3135 21.5121 64.5426 21.5121C64.5426 22.6933 64.5426 23.8599 64.5426 25.0759C65.775 25.0759 66.9287 25.0759 68.1218 25.0759C68.1218 27.4912 68.1218 29.8548 68.1218 32.2577C66.9456 32.2577 65.812 32.2577 64.6077 32.2577C64.6077 31.1012 64.6077 29.9346 64.6077 28.7275C63.3888 28.7275 62.2407 28.7275 61.0431 28.7275C61.0431 31.0922 61.0431 33.4524 61.0431 35.8598C63.3843 35.8598 65.7143 35.8598 68.133 35.8598C68.133 36.7544 68.1285 37.6063 68.1342 38.4582C68.142 39.572 68.0095 39.4158 69.0756 39.4248C69.9316 39.4326 70.7877 39.4259 71.7201 39.4259C71.7201 38.2177 71.7201 37.0679 71.7201 35.898C72.9301 35.898 74.0614 35.898 75.2567 35.898C75.2567 38.2716 75.2567 40.6183 75.2567 43.0179C76.488 43.0179 77.6586 43.0179 78.8292 43.019C78.8707 41.8411 78.9101 40.6622 78.9494 39.4855C80.1436 39.4855 81.276 39.4855 82.4253 39.4855C82.4253 40.6813 82.4253 41.8456 82.4253 43.0066C81.1962 43.0033 80.0054 43.0033 78.8134 43.0033ZM93.2012 64.608C93.2012 67.0345 93.2012 69.3924 93.2012 71.7492C92.0171 71.7492 90.8869 71.7492 89.7275 71.7492C89.7275 69.3553 89.7275 66.9929 89.7275 64.608C90.9015 64.608 92.0339 64.608 93.2012 64.608ZM82.5387 64.6406C83.7453 64.6406 84.8743 64.6406 86.0101 64.6406C86.0101 65.8229 86.0101 66.967 86.0101 68.11C84.835 68.11 83.7026 68.11 82.5387 68.11C82.5387 66.9434 82.5387 65.8105 82.5387 64.6406ZM57.356 25.031C56.1259 25.031 54.9957 25.031 53.8431 25.031C53.8431 23.8509 53.8431 22.7045 53.8431 21.4986C54.9429 21.4986 56.0023 21.4907 57.0617 21.5121C57.1617 21.5143 57.3414 21.7042 57.3437 21.8099C57.3639 22.872 57.356 23.9329 57.356 25.031ZM71.6583 32.2891C71.6583 33.5142 71.6583 34.6785 71.6583 35.8362C70.4787 35.8362 69.3486 35.8362 68.2218 35.8362C68.2218 34.6325 68.2218 33.4703 68.2218 32.2891C69.389 32.2891 70.5035 32.2891 71.6583 32.2891ZM86.1797 46.6031C86.1797 45.4309 86.1797 44.2879 86.1797 43.1179C87.338 43.1179 88.4625 43.1179 89.5916 43.1179C89.5916 44.307 89.5916 45.4522 89.5916 46.6031C88.4356 46.6031 87.3245 46.6031 86.1797 46.6031ZM78.9572 64.4956C78.9572 63.3267 78.9572 62.1837 78.9572 61.0328C80.1425 61.0328 81.2737 61.0328 82.4354 61.0328C82.4354 62.1927 82.4354 63.3211 82.4354 64.4956C81.2659 64.4956 80.1189 64.4956 78.9572 64.4956ZM82.5028 60.8946C82.5028 59.8123 82.4938 58.7693 82.5151 57.7286C82.5174 57.6162 82.6859 57.4116 82.7814 57.4094C83.8554 57.3869 84.9305 57.3948 86.0247 57.3948C86.0247 58.603 86.0247 59.7325 86.0247 60.8946C84.8665 60.8946 83.7363 60.8946 82.5028 60.8946ZM86.1629 64.5023C86.1629 63.2986 86.1629 62.1725 86.1629 61.0463C87.3492 61.0463 88.4895 61.0463 89.6208 61.0463C89.6208 62.2298 89.6208 63.3593 89.6208 64.5023C88.4536 64.5023 87.3256 64.5023 86.1629 64.5023Z" fill="black"/>
<path d="M104 104C104 95.6426 104 87.3382 104 78.991C95.635 78.991 87.2879 78.991 78.9128 78.991C78.9128 87.3325 78.9128 95.6505 78.9128 104C87.2778 104 95.6114 104 104 104ZM82.8043 100.175C82.8043 94.3636 82.8043 88.5958 82.8043 82.8336C88.6158 82.8336 94.3824 82.8336 100.15 82.8336C100.15 88.634 100.15 94.3884 100.15 100.175C94.3644 100.175 88.6113 100.175 82.8043 100.175Z" fill="black"/>
<path d="M25.0446 0.0045166C16.6987 0.0045166 8.3707 0.0045166 0.0101707 0.0045166C0.0101707 8.35059 0.0101707 16.6674 0.0101707 25.0248C8.3561 25.0248 16.6818 25.0248 25.0446 25.0248C25.0446 16.6809 25.0446 8.36633 25.0446 0.0045166ZM21.2407 3.77745C21.2407 9.63296 21.2407 15.4042 21.2407 21.1945C15.4247 21.1945 9.64355 21.1945 3.84106 21.1945C3.82757 21.0046 3.80847 20.8585 3.80847 20.7112C3.80622 15.2311 3.81072 9.74984 3.79387 4.26971C3.79275 3.79992 4.00058 3.76958 4.37018 3.7707C9.75476 3.77857 15.1393 3.77745 20.5239 3.77745C20.761 3.77745 20.998 3.77745 21.2407 3.77745Z" fill="black"/>
<path d="M103.972 0C95.6189 0 87.3067 0 78.9574 0C78.9574 8.35507 78.9574 16.6719 78.9574 25.027C87.2966 25.027 95.61 25.027 103.972 25.027C103.972 16.7023 103.972 8.3708 103.972 0ZM100.15 21.2035C94.3248 21.2035 88.5717 21.2035 82.7928 21.2035C82.7928 15.3929 82.7928 9.61945 82.7928 3.81676C88.5919 3.81676 94.3596 3.81676 100.15 3.81676C100.15 9.62844 100.15 15.3997 100.15 21.2035Z" fill="black"/>
<path d="M50.2407 7.10086C51.3933 7.10086 52.546 7.10086 53.7694 7.10086C53.7694 8.12698 53.8031 9.05869 53.757 9.98704C53.7278 10.5636 53.9132 10.7412 54.4828 10.7075C55.2658 10.6603 56.0533 10.6782 56.8386 10.703C57.2194 10.7153 57.3722 10.6142 57.3621 10.2062C57.3374 9.20031 57.3542 8.19442 57.3542 7.12896C56.1612 7.12896 55.0287 7.12896 53.8435 7.12896C53.8435 5.92077 53.8435 4.77327 53.8435 3.58081C56.169 3.58081 58.4968 3.58081 60.8941 3.58081C60.8941 4.77102 60.8941 5.91964 60.8941 7.13458C61.1615 7.13458 61.3604 7.13458 61.5603 7.13458C63.5241 7.1357 65.489 7.1638 67.4516 7.12334C68.0481 7.11098 68.1571 7.30654 68.1526 7.8505C68.129 10.957 68.1414 14.0634 68.1425 17.1687C68.1425 17.3902 68.1425 17.6104 68.1425 17.8588C70.5331 17.8588 72.8654 17.8588 75.2459 17.8588C75.2459 16.7023 75.2459 15.5391 75.2459 14.3163C74.1191 14.3163 72.9867 14.3163 71.7689 14.3163C71.7689 14.0443 71.7689 13.8285 71.7689 13.6116C71.7689 11.6841 71.7689 9.75664 71.7678 7.82915C71.7678 7.11884 71.7655 7.1166 71.0297 7.11547C70.1141 7.11435 69.1985 7.11547 68.2267 7.11547C68.2267 5.94887 68.2267 4.80586 68.2267 3.59992C69.3637 3.59992 70.4949 3.59992 71.6712 3.59992C71.6712 2.37374 71.6712 1.20826 71.6712 0.00793457C70.5242 0.00793457 69.3749 0.00793457 68.1358 0.00793457C68.1358 0.94639 68.1358 1.87361 68.1358 2.80195C68.1358 3.53023 68.1346 3.53136 67.4156 3.53248C65.489 3.5381 63.5623 3.5426 61.6356 3.54709C61.4345 3.54709 61.2323 3.54709 60.9705 3.54709C60.9705 2.34902 60.9705 1.21388 60.9705 0.0326604C58.5473 0.0326604 56.1848 0.0326604 53.7537 0.0326604C53.7537 1.17117 53.7537 2.30294 53.7537 3.48078C52.5561 3.48078 51.427 3.48078 50.2283 3.48078C50.2283 2.3389 50.2283 1.20826 50.2283 0.0281648C49.015 0.0281648 47.868 0.0281648 46.6806 0.0281648C46.6806 1.19365 46.6806 2.35913 46.6806 3.5898C47.8343 3.5898 48.9656 3.5898 50.2486 3.5898C50.2486 4.80474 50.2486 5.95561 50.2486 7.10761C50.2475 7.10761 50.2407 7.10086 50.2407 7.10086Z" fill="black"/>
<path d="M61.0065 68.2106C59.773 68.2106 58.6215 68.2106 57.4362 68.2106C57.4362 69.3907 57.4362 70.5415 57.4362 71.7565C58.5911 71.7565 59.7404 71.7565 60.9458 71.7565C60.9458 76.542 60.9458 81.2635 60.9458 86.03C62.1692 86.03 63.3354 86.03 64.5678 86.03C64.5678 83.708 64.5678 81.3804 64.5678 78.9685C65.5766 78.9685 66.5236 78.9348 67.4673 78.9809C68.0212 79.0079 68.165 78.8191 68.1425 78.2886C68.1021 77.3389 68.1313 76.3869 68.1313 75.3507C66.9449 75.3507 65.799 75.3507 64.6037 75.3507C64.6037 74.1144 64.6037 72.9635 64.6037 71.7407C63.3859 71.7407 62.2176 71.7407 61.0065 71.7407C61.0065 70.537 61.0065 69.4008 61.0065 68.2106Z" fill="black"/>
<path d="M75.2606 89.6591C74.0866 89.6591 72.9373 89.6591 71.7364 89.6591C71.7364 88.4644 71.7364 87.3293 71.7364 86.1548C70.5377 86.1548 69.3929 86.1548 68.2111 86.1548C68.2111 87.3304 68.2111 88.479 68.2111 89.6906C69.3693 89.6906 70.5017 89.6906 71.6735 89.6906C71.6735 90.8864 71.6735 92.0204 71.6735 93.2264C70.5388 93.2264 69.3907 93.2264 68.2055 93.2264C68.2055 95.645 68.2055 97.9951 68.2055 100.392C69.3491 100.392 70.495 100.392 71.7105 100.392C71.7105 99.2572 71.7105 98.1265 71.7105 96.9341C72.9272 96.9341 74.0765 96.9341 75.2606 96.9341C75.2606 94.4862 75.2606 92.1036 75.2606 89.6591Z" fill="black"/>
<path d="M3.54897 93.2454C2.37723 93.2454 1.2055 93.2454 0.00343341 93.2454C0.00343341 94.4783 0.00343341 95.6472 0.00343341 96.8812C1.18078 96.8812 2.33117 96.8812 3.53549 96.8812C3.53549 99.2751 3.53549 101.605 3.53549 103.98C4.75328 103.98 5.91603 103.98 7.11023 103.98C7.11023 101.618 7.11023 99.2718 7.11023 96.8644C5.93625 96.8644 4.78586 96.8644 3.53661 96.8644C3.53661 95.6146 3.53661 94.4244 3.53661 93.2353C3.53773 93.2342 3.54897 93.2454 3.54897 93.2454Z" fill="black"/>
<path d="M3.55008 35.8479C3.55121 37.0505 3.55233 38.253 3.55233 39.4556L3.53773 39.441C4.72744 39.441 5.91714 39.441 7.13831 39.441C7.13831 38.2058 7.13831 37.0302 7.13831 35.8558L7.13381 35.8513C5.93512 35.8546 4.73642 35.8569 3.53773 35.8603L3.55008 35.8479Z" fill="black"/>
<path d="M3.53775 35.8591C3.53775 34.6869 3.53775 33.5158 3.53775 32.3087C2.35703 32.3087 1.21001 32.3087 0.0180588 32.3087C0.0180588 33.4843 0.0180588 34.6464 0.0180588 35.8479C1.20777 35.8479 2.3795 35.8479 3.55011 35.8479C3.55011 35.8479 3.53775 35.8591 3.53775 35.8591Z" fill="black"/>
<path d="M10.7232 35.858C10.7232 34.688 10.7232 33.518 10.7232 32.3087C9.52117 32.3087 8.35842 32.3087 7.13389 32.3087C7.13389 33.5102 7.13389 34.6801 7.13389 35.8501L7.13838 35.8546C8.33708 35.8524 9.53578 35.8501 10.7356 35.8479L10.7232 35.858Z" fill="black"/>
<path d="M100.478 64.422C100.478 65.6279 100.478 66.8339 100.478 68.0859C101.633 68.0859 102.795 68.0859 103.988 68.0859C103.988 66.926 103.988 65.7763 103.988 64.5389C103.025 64.5389 102.062 64.5445 101.099 64.5344C100.887 64.5321 100.676 64.4726 100.467 64.4355C100.468 64.4321 100.478 64.422 100.478 64.422Z" fill="black"/>
<path d="M64.524 14.2656C64.524 13.0743 64.524 11.9402 64.524 10.7646C63.3523 10.7646 62.2086 10.7646 61.029 10.7646C61.029 11.9324 61.029 13.0799 61.029 14.2656C62.1828 14.2656 63.3275 14.2656 64.524 14.2656Z" fill="black"/>
<path d="M7.18427 17.8655C7.18427 14.2735 7.18427 10.731 7.18427 7.17273C10.7635 7.17273 14.3045 7.17273 17.8591 7.17273C17.8591 10.7568 17.8591 14.3005 17.8591 17.8655C14.2899 17.8655 10.7601 17.8655 7.18427 17.8655Z" fill="white"/>
<path d="M21.5405 78.9855C21.5405 80.1431 21.5405 81.2749 21.5405 82.4471C22.7021 82.4471 23.848 82.4471 25.0299 82.4471C25.0299 81.2917 25.0299 80.1599 25.0299 78.9855C23.8638 78.9855 22.719 78.9855 21.5405 78.9855Z" fill="black"/>
<path d="M96.7842 86.1064C93.2353 86.1064 89.71 86.1064 86.1352 86.1064C86.1352 89.6726 86.1352 93.2286 86.1352 96.8138C89.6864 96.8138 93.2117 96.8138 96.7842 96.8138C96.7842 93.2612 96.7842 89.7187 96.7842 86.1064Z" fill="black"/>
<path d="M7.18427 17.8655C10.7613 17.8655 14.2899 17.8655 17.8591 17.8655C17.8591 14.3005 17.8591 10.7568 17.8591 7.17273C14.3045 7.17273 10.7635 7.17273 7.18427 7.17273C7.18427 10.731 7.18427 14.2735 7.18427 17.8655Z" fill="black"/>
<path d="M86.1386 7.17041C86.1386 10.7197 86.1386 14.2645 86.1386 17.8497C89.6763 17.8497 93.2151 17.8497 96.7943 17.8497C96.7943 14.3016 96.7943 10.759 96.7943 7.17041C93.2611 7.17041 89.7212 7.17041 86.1386 7.17041Z" fill="black"/>
<path d="M55.5287 45.011L61.7379 55.3587C63.3422 58.0336 61.4166 61.4368 58.2991 61.4368H45.8819C42.7632 61.4368 40.8377 58.0336 42.4431 55.3587L48.6522 45.011C50.2082 42.4137 53.9705 42.4137 55.5287 45.011ZM49.3993 45.4774L43.1699 55.8532C42.2869 57.3244 43.3463 59.198 45.0618 59.198H57.5206C59.236 59.198 60.2954 57.3255 59.4124 55.8532L53.183 45.4774C52.3259 44.0489 50.2565 44.0489 49.3993 45.4774Z" fill="black"/>
<path d="M51.8664 47.641L56.0085 54.5417C56.6466 55.6049 55.8816 56.957 54.6424 56.957H46.3572C45.118 56.957 44.353 55.6038 44.9911 54.5417L49.1331 47.641C49.7533 46.6093 51.2474 46.6093 51.8664 47.641ZM49.168 49.2763L46.465 53.7786C46.2179 54.1911 46.5144 54.7159 46.9953 54.7159H52.4012C52.882 54.7159 53.1786 54.1911 52.9314 53.7786L50.2285 49.2763C49.9881 48.8762 49.4084 48.8762 49.168 49.2763Z" fill="black"/>
</svg>
